<svg width="536" height="259" viewBox="0 0 536 259" fill="none" xmlns="http://www.w3.org/2000/svg">
<path d="M414.795 203.809C414.795 203.818 414.777 203.974 414.352 204.241C413.958 204.488 413.339 204.749 412.48 205.017C410.769 205.549 408.221 206.07 404.908 206.569C398.29 207.566 388.698 208.465 376.83 209.222C353.098 210.734 320.305 211.669 284.077 211.669C247.849 211.669 215.056 210.734 191.324 209.222C179.456 208.465 169.864 207.566 163.246 206.569C159.933 206.07 157.385 205.549 155.674 205.017C154.815 204.749 154.196 204.488 153.803 204.241C153.377 203.974 153.359 203.818 153.359 203.809C153.359 203.8 153.377 203.645 153.803 203.378C154.196 203.131 154.815 202.869 155.674 202.602C157.385 202.069 159.933 201.549 163.246 201.05C169.864 200.053 179.456 199.153 191.324 198.397C215.056 196.885 247.849 195.95 284.077 195.95C320.305 195.95 353.098 196.885 376.83 198.397C388.698 199.153 398.29 200.053 404.908 201.05C408.221 201.549 410.769 202.069 412.48 202.602C413.339 202.869 413.958 203.131 414.352 203.378C414.777 203.645 414.795 203.8 414.795 203.809Z" fill="#F5F5F5" stroke="black"/>
<path d="M137.152 203.809C137.152 204.095 136.9 204.529 135.999 205.064C135.136 205.576 133.832 206.087 132.105 206.583C128.66 207.572 123.651 208.469 117.433 209.224C105.004 210.734 87.8182 211.669 68.8261 211.669C49.834 211.669 32.6486 210.734 20.2191 209.224C14.0009 208.469 8.99174 207.572 5.54673 206.583C3.82042 206.087 2.51598 205.576 1.65352 205.064C0.75264 204.529 0.5 204.095 0.5 203.809C0.5 203.524 0.75264 203.089 1.65352 202.555C2.51598 202.043 3.82042 201.532 5.54673 201.036C8.99174 200.047 14.0009 199.15 20.2191 198.395C32.6486 196.885 49.834 195.95 68.8261 195.95C87.8182 195.95 105.004 196.885 117.433 198.395C123.651 199.15 128.66 200.047 132.105 201.036C133.832 201.532 135.136 202.043 135.999 202.555C136.9 203.089 137.152 203.524 137.152 203.809Z" fill="#F5F5F5" stroke="black"/>
<path d="M535.483 192.111C535.483 192.452 535.257 192.885 534.576 193.396C533.907 193.897 532.889 194.402 531.53 194.895C528.818 195.879 524.865 196.773 519.946 197.528C510.116 199.036 496.519 199.971 481.488 199.971C466.456 199.971 452.859 199.036 443.029 197.528C438.111 196.773 434.158 195.879 431.445 194.895C430.086 194.402 429.068 193.897 428.399 193.396C427.719 192.885 427.492 192.452 427.492 192.111C427.492 191.77 427.719 191.337 428.399 190.826C429.068 190.325 430.086 189.82 431.445 189.327C434.158 188.343 438.111 187.449 443.029 186.694C452.859 185.186 466.456 184.251 481.488 184.251C496.519 184.251 510.116 185.186 519.946 186.694C524.865 187.449 528.818 188.343 531.53 189.327C532.889 189.82 533.907 190.325 534.576 190.826C535.257 191.337 535.483 191.77 535.483 192.111Z" fill="#F5F5F5" stroke="black"/>
<mask id="path-4-inside-1_1_187" fill="white">
<path d="M531.409 180.725H3.82543C3.66736 180.725 3.53906 180.597 3.53906 180.439C3.53906 180.281 3.66736 180.152 3.82543 180.152H531.409C531.567 180.152 531.696 180.281 531.696 180.439C531.696 180.597 531.567 180.725 531.409 180.725Z"/>
</mask>
<path d="M531.409 180.725H3.82543C3.66736 180.725 3.53906 180.597 3.53906 180.439C3.53906 180.281 3.66736 180.152 3.82543 180.152H531.409C531.567 180.152 531.696 180.281 531.696 180.439C531.696 180.597 531.567 180.725 531.409 180.725Z" fill="#263238"/>
<path d="M531.409 179.725H3.82543V181.725H531.409V179.725ZM3.82543 179.725C4.21964 179.725 4.53906 180.045 4.53906 180.439H2.53906C2.53906 181.149 3.11507 181.725 3.82543 181.725V179.725ZM4.53906 180.439C4.53906 180.833 4.21964 181.152 3.82543 181.152V179.152C3.11507 179.152 2.53906 179.728 2.53906 180.439H4.53906ZM3.82543 181.152H531.409V179.152H3.82543V181.152ZM531.409 181.152C531.015 181.152 530.696 180.833 530.696 180.439H532.696C532.696 179.728 532.12 179.152 531.409 179.152V181.152ZM530.696 180.439C530.696 180.045 531.015 179.725 531.409 179.725V181.725C532.12 181.725 532.696 181.149 532.696 180.439H530.696Z" fill="black" mask="url(#path-4-inside-1_1_187)"/>
<path d="M448.096 95.2727L447.183 94.8752C447.862 92.8347 448.103 90.65 447.894 88.5101C446.681 90.2987 445.854 92.3495 445.493 94.4804L444.507 94.4812C444.232 92.8734 443.961 91.3144 443.371 89.8722C442.876 88.6634 442.141 87.5557 441.16 86.7938C440.561 89.9392 441.022 93.2845 442.466 96.144L441.588 96.6212C440.325 94.4533 438.293 92.7431 435.95 91.8496C436.719 95.0883 439.272 97.8804 442.453 98.8792L444.95 98.56C446.963 98.2007 448.845 97.1334 450.187 95.5915L448.096 95.2727ZM448.096 95.2727C449.081 93.4696 450.561 91.94 452.325 90.8853M448.096 95.2727L452.325 90.8853M452.325 90.8853C452.082 92.6145 451.334 94.2738 450.187 95.5914L452.325 90.8853Z" fill="#FDBBB5" stroke="black"/>
<path d="M448.025 97.257L448.938 97.6546C450.206 95.3349 452.129 93.3784 454.421 92.0604C454.154 94.3084 453.203 96.4761 451.717 98.184C450.039 100.113 447.684 101.447 445.167 101.896L442.048 102.295C437.991 101.031 434.749 97.4367 433.85 93.2899C436.861 94.3822 439.479 96.5518 441.092 99.3206L441.97 98.8435C440.143 95.2264 439.579 90.9855 440.38 87.0145C441.692 87.9756 442.663 89.417 443.306 90.9864C444.041 92.7844 444.378 94.7259 444.718 96.7126L445.704 96.7117C446.171 93.9534 447.266 91.3028 448.876 89.0148C449.193 91.7802 448.903 94.6159 448.025 97.257Z" fill="#E97A75" stroke="black"/>
<path d="M493.768 112.847L494.261 113.712C495.564 113.124 497.119 112.837 498.729 112.887C497.974 113.584 496.955 114.107 495.783 114.367C494.239 114.709 492.452 114.586 490.819 114.015L488.846 113.239C486.92 111.537 486.093 109.197 486.543 107.263C487.911 108.634 488.746 110.298 488.889 111.894L489.887 111.841C489.854 109.803 490.67 107.859 492.176 106.389C492.595 107.147 492.725 107.988 492.659 108.79C492.577 109.774 492.227 110.711 491.846 111.713L492.668 112.243C493.648 111.259 494.925 110.469 496.393 109.943C495.79 111.059 494.897 112.054 493.768 112.847Z" fill="#FDBBB5" stroke="black"/>
<path d="M493.316 114.899V115.861L494.068 115.333C495.763 114.578 497.792 114.228 499.88 114.334C498.912 115.31 497.554 116.04 495.979 116.388C494.045 116.816 491.813 116.662 489.771 115.949L487.309 114.98C484.824 112.793 483.779 109.742 484.458 107.255C486.254 108.993 487.358 111.139 487.544 113.203L488.542 113.15C488.498 110.545 489.564 108.065 491.518 106.212C492.112 107.209 492.295 108.324 492.207 109.383C492.105 110.621 491.665 111.795 491.195 113.032L492.017 113.562C493.304 112.268 495.001 111.245 496.951 110.59C496.203 112.083 495.049 113.412 493.57 114.46L493.316 114.575V114.898V114.899Z" fill="#E97A75" stroke="black"/>
<path d="M466.042 82.3365L466.042 82.3365C470.4 81.0494 475.248 83.9611 477.57 88.0665C479.893 92.1727 480.225 97.1072 480.346 101.969C480.752 118.486 479.371 134.991 477.972 151.49L452.381 153.756C452.466 134.506 454.208 115.264 457.579 96.3119C458.096 93.4065 458.866 90.2933 460.194 87.7087C461.52 85.1284 463.374 83.1246 466.042 82.3365Z" fill="#3B7A57" stroke="black"/>
<mask id="path-11-inside-2_1_187" fill="white">
<path d="M464.494 82.6504C462.796 88.3442 461.918 94.3151 461.26 100.21C459.314 117.997 459.247 135.918 458.035 153.757C458.713 141.852 458.968 129.928 459.652 118.022C460.494 106.166 461.078 94.1036 464.495 82.6511L464.494 82.6504Z"/>
</mask>
<path d="M464.494 82.6504C462.796 88.3442 461.918 94.3151 461.26 100.21C459.314 117.997 459.247 135.918 458.035 153.757C458.713 141.852 458.968 129.928 459.652 118.022C460.494 106.166 461.078 94.1036 464.495 82.6511L464.494 82.6504Z" fill="#263238"/>
<path d="M464.494 82.6504L465.185 81.9275L464.003 80.7978L463.536 82.3646L464.494 82.6504ZM461.26 100.21L460.266 100.099L460.266 100.101L461.26 100.21ZM458.035 153.757L457.037 153.701L459.033 153.825L458.035 153.757ZM459.652 118.022L458.654 117.951L458.653 117.965L459.652 118.022ZM464.495 82.6511L465.453 82.937L465.628 82.3509L465.186 81.9283L464.495 82.6511ZM463.536 82.3646C461.811 88.1453 460.926 94.1872 460.266 100.099L462.254 100.321C462.91 94.443 463.78 88.543 465.452 82.9362L463.536 82.3646ZM460.266 100.101C458.319 117.9 458.242 135.951 457.037 153.69L459.033 153.825C460.251 135.885 460.309 118.093 462.254 100.318L460.266 100.101ZM459.033 153.814C459.373 147.851 459.607 141.885 459.84 135.929C460.074 129.97 460.309 124.022 460.65 118.079L458.653 117.965C458.311 123.928 458.076 129.895 457.842 135.851C457.608 141.81 457.375 147.758 457.037 153.701L459.033 153.814ZM460.649 118.093C461.494 106.194 462.075 94.2599 465.453 82.937L463.536 82.3653C460.081 93.9473 459.493 106.138 458.654 117.951L460.649 118.093ZM465.186 81.9283L465.185 81.9275L463.803 83.3733L463.804 83.374L465.186 81.9283Z" fill="black" mask="url(#path-11-inside-2_1_187)"/>
<mask id="path-13-inside-3_1_187" fill="white">
<path d="M469.124 81.7509C467.341 105.47 466.805 129.267 466.156 153.038C466.566 129.264 467.105 105.451 469.124 81.7509Z"/>
</mask>
<path d="M469.124 81.7509C467.341 105.47 466.805 129.267 466.156 153.038C466.566 129.264 467.105 105.451 469.124 81.7509Z" fill="#263238"/>
<path d="M469.124 81.7509L470.121 81.8258L468.127 81.666L469.124 81.7509ZM466.156 153.038L465.156 153.021L467.156 153.065L466.156 153.038ZM468.126 81.6759C466.342 105.424 465.805 129.249 465.156 153.011L467.156 153.065C467.805 129.286 468.341 105.516 470.121 81.8258L468.126 81.6759ZM467.156 153.055C467.566 129.28 468.105 105.498 470.12 81.8357L468.127 81.666C466.106 105.403 465.566 129.247 465.156 153.021L467.156 153.055Z" fill="black" mask="url(#path-13-inside-3_1_187)"/>
<mask id="path-15-inside-4_1_187" fill="white">
<path d="M474.474 83.7516C475.294 95.1697 475.676 106.617 475.795 118.063C475.797 129.499 475.708 140.996 474.09 152.336C475.555 140.98 475.662 129.499 475.604 118.065C475.542 106.62 475.141 95.1773 474.474 83.7516Z"/>
</mask>
<path d="M474.474 83.7516C475.294 95.1697 475.676 106.617 475.795 118.063C475.797 129.499 475.708 140.996 474.09 152.336C475.555 140.98 475.662 129.499 475.604 118.065C475.542 106.62 475.141 95.1773 474.474 83.7516Z" fill="#263238"/>
<path d="M474.474 83.7516L475.471 83.6799L473.475 83.8099L474.474 83.7516ZM475.795 118.063L476.795 118.063L476.795 118.053L475.795 118.063ZM474.09 152.336L473.098 152.208L475.08 152.478L474.09 152.336ZM475.604 118.065L476.604 118.06L476.604 118.059L475.604 118.065ZM473.476 83.8232C474.295 95.2161 474.676 106.642 474.795 118.073L476.795 118.053C476.676 106.591 476.293 95.1232 475.471 83.6799L473.476 83.8232ZM474.795 118.063C474.797 129.503 474.706 140.934 473.1 152.195L475.08 152.478C476.709 141.058 476.797 129.494 476.795 118.063L474.795 118.063ZM475.081 152.464C476.556 141.036 476.662 129.497 476.604 118.06L474.604 118.07C474.662 129.502 474.554 140.924 473.098 152.208L475.081 152.464ZM476.604 118.059C476.542 106.595 476.14 95.1344 475.472 83.6933L473.475 83.8099C474.142 95.2201 474.542 106.645 474.604 118.07L476.604 118.059Z" fill="black" mask="url(#path-15-inside-4_1_187)"/>
<g opacity="0.3">
<path d="M466.042 82.3365L466.042 82.3365C470.4 81.0494 475.248 83.9611 477.57 88.0665C479.893 92.1727 480.225 97.1072 480.346 101.969C480.752 118.486 479.371 134.991 477.972 151.49L452.381 153.756C452.466 134.506 454.208 115.264 457.579 96.3119C458.096 93.4065 458.866 90.2933 460.194 87.7087C461.52 85.1284 463.374 83.1246 466.042 82.3365Z" fill="black" stroke="black"/>
</g>
<path d="M433.719 157.941L434.183 122.62C434.183 122.62 434.183 122.62 434.183 122.62C434.255 117.179 434.401 111.631 436.993 107.043C438.273 104.777 440.381 102.857 442.75 101.789C445.117 100.722 447.702 100.522 449.981 101.614C452.222 102.687 453.681 104.658 454.655 107.054C455.631 109.454 456.102 112.236 456.387 114.857C456.387 114.857 456.387 114.857 456.387 114.857L456.884 114.803L433.719 157.941ZM433.719 157.941L457.178 154.412L433.719 157.941Z" fill="#3B7A57" stroke="black"/>
<mask id="path-19-inside-5_1_187" fill="white">
<path d="M441.986 101.906C438.072 120.177 439.214 139.036 439.394 157.593C438.972 139.051 437.841 120.129 441.986 101.906Z"/>
</mask>
<path d="M441.986 101.906C438.072 120.177 439.214 139.036 439.394 157.593C438.972 139.051 437.841 120.129 441.986 101.906Z" fill="#263238"/>
<path d="M441.986 101.906L442.964 102.115L441.011 101.684L441.986 101.906ZM439.394 157.593L438.394 157.616L440.394 157.584L439.394 157.593ZM441.008 101.696C437.064 120.107 438.215 139.121 438.394 157.603L440.394 157.584C440.213 138.951 439.08 120.247 442.964 102.115L441.008 101.696ZM440.394 157.571C439.97 138.966 438.85 120.199 442.961 102.128L441.011 101.684C436.831 120.058 437.973 139.135 438.394 157.616L440.394 157.571Z" fill="black" mask="url(#path-19-inside-5_1_187)"/>
<mask id="path-21-inside-6_1_187" fill="white">
<path d="M445.297 101.834C445.481 120.01 445.948 138.297 446.984 156.452C445.707 138.283 445.246 120.046 445.297 101.834Z"/>
</mask>
<path d="M445.297 101.834C445.481 120.01 445.948 138.297 446.984 156.452C445.707 138.283 445.246 120.046 445.297 101.834Z" fill="#263238"/>
<path d="M445.297 101.834L446.297 101.824L444.297 101.831L445.297 101.834ZM446.984 156.452L445.986 156.522L447.982 156.395L446.984 156.452ZM444.297 101.844C444.482 120.03 444.948 138.334 445.985 156.509L447.982 156.395C446.948 138.261 446.481 119.99 446.297 101.824L444.297 101.844ZM447.981 156.382C446.707 138.242 446.246 120.031 446.297 101.837L444.297 101.831C444.246 120.062 444.708 138.323 445.986 156.522L447.981 156.382Z" fill="black" mask="url(#path-21-inside-6_1_187)"/>
<mask id="path-23-inside-7_1_187" fill="white">
<path d="M450.199 101.163C453.197 119.059 455.071 137.299 454.086 155.453C454.831 137.29 452.962 119.098 450.199 101.163Z"/>
</mask>
<path d="M450.199 101.163C453.197 119.059 455.071 137.299 454.086 155.453C454.831 137.29 452.962 119.098 450.199 101.163Z" fill="#263238"/>
<path d="M450.199 101.163L451.185 100.998L449.211 101.315L450.199 101.163ZM454.086 155.453L453.087 155.412L455.085 155.507L454.086 155.453ZM449.213 101.328C452.204 119.186 454.067 137.346 453.088 155.399L455.085 155.507C456.075 137.251 454.189 118.932 451.185 100.998L449.213 101.328ZM455.085 155.494C455.834 137.239 453.955 118.975 451.188 101.011L449.211 101.315C451.969 119.221 453.828 137.341 453.087 155.412L455.085 155.494Z" fill="black" mask="url(#path-23-inside-7_1_187)"/>
<path d="M494.581 120.964C494.884 122.871 494.776 124.965 494.55 126.939L494.517 127.213C493.278 137.476 491.134 147.63 488.118 157.518L469.751 156.064C470.832 151.675 471.91 147.302 472.987 142.928C474.109 138.372 475.232 133.816 476.358 129.242C477.381 125.088 478.476 120.897 481.254 117.871C482.62 116.381 484.554 115.298 486.535 114.907C488.513 114.516 490.492 114.821 492.011 116.037C493.507 117.235 494.264 118.974 494.581 120.964Z" fill="#3B7A57" stroke="black"/>
<mask id="path-26-inside-8_1_187" fill="white">
<path d="M485.91 114.755C479.69 128.049 477.212 142.676 474.023 156.904C476.972 142.636 479.474 127.951 485.91 114.755Z"/>
</mask>
<path d="M485.91 114.755C479.69 128.049 477.212 142.676 474.023 156.904C476.972 142.636 479.474 127.951 485.91 114.755Z" fill="#263238"/>
<path d="M485.91 114.755L486.816 115.179L485.012 114.317L485.91 114.755ZM474.023 156.904L473.044 156.702L474.999 157.123L474.023 156.904ZM485.005 114.331C478.724 127.753 476.219 142.533 473.048 156.685L474.999 157.123C478.204 142.82 480.655 128.346 486.816 115.179L485.005 114.331ZM475.003 157.106C477.963 142.78 480.442 128.248 486.809 115.193L485.012 114.317C478.507 127.654 475.98 142.492 473.044 156.702L475.003 157.106Z" fill="black" mask="url(#path-26-inside-8_1_187)"/>
<mask id="path-28-inside-9_1_187" fill="white">
<path d="M488.454 115.289C485.382 129.264 482.497 143.286 480.031 157.38C482.26 143.248 485.152 129.209 488.454 115.289Z"/>
</mask>
<path d="M488.454 115.289C485.382 129.264 482.497 143.286 480.031 157.38C482.26 143.248 485.152 129.209 488.454 115.289Z" fill="#263238"/>
<path d="M488.454 115.289L489.431 115.504L487.481 115.058L488.454 115.289ZM480.031 157.38L479.043 157.225L481.016 157.553L480.031 157.38ZM487.478 115.074C484.404 129.057 481.515 143.094 479.046 157.208L481.016 157.553C483.479 143.477 486.361 129.47 489.431 115.504L487.478 115.074ZM481.019 157.536C483.243 143.434 486.129 129.421 489.427 115.52L487.481 115.058C484.174 128.998 481.277 143.061 479.043 157.225L481.019 157.536Z" fill="black" mask="url(#path-28-inside-9_1_187)"/>
<mask id="path-30-inside-10_1_187" fill="white">
<path d="M492.326 115.647C491.462 129.875 489.651 144.17 485.645 157.879C489.419 144.107 491.225 129.86 492.326 115.647Z"/>
</mask>
<path d="M492.326 115.647C491.462 129.875 489.651 144.17 485.645 157.879C489.419 144.107 491.225 129.86 492.326 115.647Z" fill="#263238"/>
<path d="M492.326 115.647L493.324 115.708L491.329 115.57L492.326 115.647ZM485.645 157.879L484.68 157.615L486.604 158.16L485.645 157.879ZM491.328 115.586C490.466 129.774 488.663 143.988 484.685 157.598L486.604 158.16C490.64 144.352 492.458 129.975 493.324 115.708L491.328 115.586ZM486.609 158.143C490.408 144.284 492.219 129.966 493.323 115.724L491.329 115.57C490.23 129.754 488.431 143.931 484.68 157.615L486.609 158.143Z" fill="black" mask="url(#path-30-inside-10_1_187)"/>
<path d="M428.566 161.816V150.943H498.426V161.816C498.426 180.553 483.214 195.765 464.477 195.765H462.515C443.778 195.765 428.566 180.552 428.566 161.816Z" fill="#263238" stroke="black"/>
<mask id="path-33-inside-11_1_187" fill="white">
<path d="M428.106 162.717H498.885C499.131 162.717 499.131 162.336 498.885 162.336H428.106C427.86 162.336 427.86 162.717 428.106 162.717Z"/>
</mask>
<path d="M428.106 162.717H498.885C499.131 162.717 499.131 162.336 498.885 162.336H428.106C427.86 162.336 427.86 162.717 428.106 162.717Z" fill="#3B7A57"/>
<path d="M428.106 163.717H498.885V161.717H428.106V163.717ZM498.885 163.717C499.23 163.717 499.556 163.572 499.782 163.309C499.99 163.067 500.069 162.778 500.069 162.526C500.069 162.275 499.99 161.986 499.782 161.744C499.556 161.481 499.23 161.336 498.885 161.336V163.336C498.663 163.336 498.429 163.238 498.265 163.047C498.118 162.876 498.069 162.683 498.069 162.526C498.069 162.37 498.118 162.177 498.265 162.006C498.429 161.815 498.663 161.717 498.885 161.717V163.717ZM498.885 161.336H428.106V163.336H498.885V161.336ZM428.106 161.336C427.761 161.336 427.435 161.481 427.209 161.744C427.001 161.986 426.922 162.275 426.922 162.526C426.922 162.778 427.001 163.067 427.209 163.309C427.435 163.572 427.761 163.717 428.106 163.717V161.717C428.328 161.717 428.562 161.815 428.727 162.006C428.873 162.177 428.922 162.37 428.922 162.526C428.922 162.683 428.873 162.876 428.727 163.047C428.562 163.238 428.328 163.336 428.106 163.336V161.336Z" fill="black" mask="url(#path-33-inside-11_1_187)"/>
<path d="M147.772 251.577C150.452 240.374 155.619 220.07 157.331 213.362C157.594 212.333 158.688 211.526 160.044 211.528C160.044 211.528 160.045 211.528 160.045 211.528L389.345 211.912L389.346 211.412L389.345 211.912C391.153 211.915 392.647 212.985 393.034 214.394C393.034 214.394 393.034 214.394 393.034 214.394L403.144 251.202C404.102 254.689 400.989 258.197 396.564 258.112C380.548 257.803 348.33 257.16 338.689 256.79C330.448 256.474 312.816 257.057 296.666 257.591C287.29 257.901 278.414 258.194 272.164 258.286C258.041 258.492 180.448 258.357 154.208 258.304C149.949 258.295 146.963 254.96 147.772 251.577Z" fill="#263238" stroke="black"/>
<g opacity="0.2">
<path d="M372.463 231.629L372.856 233.421H372.855L372.988 234.028C373.057 234.34 372.777 234.793 372.158 234.793H365.782C365.31 234.793 364.999 234.501 364.949 234.225C364.949 234.225 364.949 234.225 364.949 234.225L364.512 231.827L364.512 231.826C364.456 231.517 364.741 231.08 365.346 231.08H371.633C372.094 231.08 372.404 231.358 372.463 231.629L372.463 231.629Z" fill="white" stroke="black"/>
<path d="M362.629 234.046L362.634 234.072C362.671 234.379 362.385 234.793 361.796 234.793H356.227C355.738 234.793 355.428 234.484 355.39 234.202C355.39 234.202 355.39 234.202 355.39 234.202C355.39 234.202 355.39 234.202 355.389 234.202L355.067 231.804L355.067 231.804C355.026 231.497 355.318 231.08 355.905 231.08H361.359C361.832 231.08 362.143 231.371 362.193 231.647C362.193 231.647 362.193 231.647 362.193 231.647L362.629 234.046Z" fill="white" stroke="black"/>
<path d="M355.845 237.601L355.845 237.601C355.803 237.294 356.095 236.877 356.683 236.877H362.205L362.206 236.878H362.413C362.886 236.878 363.197 237.17 363.247 237.446C363.247 237.446 363.247 237.446 363.247 237.446L363.683 239.844L363.683 239.845C363.739 240.154 363.454 240.591 362.849 240.591H357.005C356.515 240.591 356.205 240.283 356.167 240.001C356.167 240.001 356.167 240.001 356.167 240.001L355.845 237.601Z" fill="white" stroke="black"/>
<path d="M385.446 243.19L385.446 243.19L386.109 245.487L386.109 245.487C386.2 245.801 385.937 246.278 385.299 246.285L385.299 246.285L357.819 246.586L357.819 246.586C357.325 246.591 357.009 246.28 356.97 245.995C356.97 245.995 356.97 245.995 356.97 245.995L356.622 243.398L356.622 243.398C356.581 243.091 356.873 242.674 357.46 242.674H364.199L364.221 242.794L364.692 242.731L365.113 242.674H374.884L374.916 242.822L375.385 242.746L375.824 242.674H384.624C385.062 242.674 385.37 242.929 385.446 243.19Z" fill="white" stroke="black"/>
<path d="M354.372 226.628L354.372 226.629L354.61 228.405C354.61 228.405 354.61 228.405 354.61 228.405C354.648 228.687 354.958 228.996 355.448 228.996H360.741C361.345 228.996 361.631 228.56 361.574 228.249L354.372 226.628ZM354.372 226.628C354.331 226.321 354.623 225.905 355.21 225.905H360.418C360.89 225.905 361.201 226.196 361.251 226.472C361.251 226.472 361.251 226.472 361.251 226.472L361.574 228.249L354.372 226.628Z" fill="white" stroke="black"/>
<path d="M371.721 228.231L371.721 228.231L371.331 226.454C371.272 226.183 370.962 225.905 370.501 225.905H364.409C363.804 225.905 363.518 226.341 363.575 226.652L371.721 228.231ZM371.721 228.231C371.79 228.543 371.51 228.996 370.89 228.996H364.732C364.259 228.996 363.948 228.704 363.898 228.429C363.898 228.429 363.898 228.429 363.898 228.429L363.575 226.652L371.721 228.231Z" fill="white" stroke="black"/>
<path d="M379.309 222.553L379.309 222.553C379.401 222.869 379.133 223.351 378.488 223.351H373.464C373.003 223.351 372.693 223.073 372.633 222.802L372.633 222.802L372.391 221.698L372.391 221.698C372.323 221.386 372.602 220.933 373.222 220.933H378.168C378.607 220.933 378.915 221.188 378.99 221.449L378.99 221.449L379.309 222.553Z" fill="white" stroke="black"/>
<path d="M381.109 228.198L381.109 228.198C381.2 228.514 380.932 228.996 380.287 228.996H374.9C374.439 228.996 374.129 228.718 374.07 228.447C374.07 228.447 374.07 228.447 374.07 228.447L373.68 226.67L373.68 226.669C373.612 226.357 373.891 225.904 374.511 225.904H379.773C380.211 225.904 380.519 226.159 380.595 226.421L380.595 226.421L381.109 228.198Z" fill="white" stroke="black"/>
<path d="M370.284 222.586L370.284 222.586C370.352 222.898 370.073 223.351 369.453 223.351H363.488H363.488C363.015 223.351 362.704 223.06 362.654 222.784C362.654 222.784 362.654 222.784 362.654 222.784C362.654 222.784 362.654 222.784 362.654 222.784L362.454 221.68L362.454 221.68C362.397 221.37 362.683 220.933 363.288 220.933H369.211C369.672 220.933 369.982 221.211 370.042 221.483L370.042 221.483L370.284 222.586Z" fill="white" stroke="black"/>
<path d="M381.408 221.731L381.408 221.731L381.727 222.835L381.727 222.835C381.802 223.096 382.111 223.351 382.549 223.351H386.828C387.139 223.351 387.385 223.222 387.527 223.058C387.665 222.897 387.705 222.709 387.641 222.525L381.408 221.731ZM381.408 221.731C381.316 221.415 381.584 220.933 382.229 220.933H386.442C386.862 220.933 387.167 221.169 387.256 221.422C387.256 221.422 387.256 221.422 387.256 221.422L387.641 222.525L381.408 221.731Z" fill="white" stroke="black"/>
<path d="M388.637 246.131L384.513 231.879L384.513 231.879C384.422 231.563 384.69 231.081 385.335 231.081H390.128C390.548 231.081 390.853 231.316 390.942 231.569C390.942 231.569 390.942 231.569 390.942 231.569L395.757 245.354C395.821 245.536 395.781 245.723 395.645 245.883C395.507 246.046 395.266 246.175 394.959 246.18L388.637 246.131Z" fill="white" stroke="black"/>
<path d="M360.131 221.5L360.131 221.5L360.331 222.603C360.331 222.604 360.331 222.604 360.331 222.604C360.388 222.914 360.102 223.35 359.498 223.35H354.452C353.962 223.35 353.652 223.042 353.614 222.76C353.614 222.76 353.614 222.76 353.614 222.76C353.614 222.76 353.614 222.76 353.614 222.76L353.466 221.656L353.466 221.656C353.424 221.349 353.716 220.932 354.303 220.932H359.297C359.769 220.932 360.08 221.224 360.131 221.5Z" fill="white" stroke="black"/>
<path d="M323.684 225.74L323.684 225.74L323.923 227.517C323.923 227.517 323.923 227.517 323.923 227.517C323.961 227.799 324.271 228.108 324.76 228.108H330.053C330.658 228.108 330.943 227.671 330.887 227.361L323.684 225.74ZM323.684 225.74C323.643 225.433 323.935 225.016 324.522 225.016H329.73C330.203 225.016 330.514 225.308 330.564 225.584C330.564 225.584 330.564 225.584 330.564 225.584L330.887 227.361L323.684 225.74Z" fill="white" stroke="black"/>
<path d="M341.029 227.343L341.029 227.343L340.64 225.566C340.64 225.566 340.64 225.566 340.64 225.566C340.58 225.294 340.27 225.016 339.81 225.016H333.717C333.113 225.016 332.827 225.453 332.883 225.763L341.029 227.343ZM341.029 227.343C341.098 227.655 340.818 228.108 340.199 228.108H334.04C333.568 228.108 333.257 227.816 333.206 227.54C333.206 227.54 333.206 227.54 333.206 227.54L332.883 225.763L341.029 227.343Z" fill="white" stroke="black"/>
<path d="M348.923 222.135L348.923 222.135C349.014 222.451 348.746 222.933 348.101 222.933H343.077C342.616 222.933 342.306 222.655 342.247 222.383L342.247 222.383L342.004 221.28L342.004 221.28C341.936 220.968 342.216 220.515 342.835 220.515H347.782C348.219 220.515 348.528 220.77 348.603 221.032L348.604 221.032L348.923 222.135Z" fill="white" stroke="black"/>
<path d="M350.421 227.309L350.421 227.309C350.513 227.625 350.244 228.107 349.599 228.107H344.213C343.752 228.107 343.442 227.829 343.382 227.558C343.382 227.558 343.382 227.558 343.382 227.558L342.993 225.781L342.993 225.781C342.924 225.468 343.204 225.016 343.823 225.016H349.085C349.524 225.016 349.832 225.27 349.907 225.532L349.907 225.532L350.421 227.309Z" fill="white" stroke="black"/>
<path d="M339.897 222.168L339.897 222.168C339.966 222.48 339.686 222.933 339.066 222.933H333.102C332.629 222.933 332.317 222.641 332.267 222.365C332.267 222.365 332.267 222.365 332.267 222.365C332.267 222.365 332.267 222.365 332.267 222.365L332.067 221.262L332.067 221.262C332.011 220.951 332.296 220.515 332.901 220.515H338.824C339.285 220.515 339.595 220.793 339.655 221.064L339.655 221.064L339.897 222.168Z" fill="white" stroke="black"/>
<path d="M329.945 222.186L329.945 222.186L329.744 221.083L329.744 221.083C329.694 220.807 329.383 220.516 328.91 220.516H323.917C323.33 220.516 323.038 220.932 323.079 221.24L323.079 221.24L323.227 222.342L329.945 222.186ZM329.945 222.186C330.001 222.496 329.716 222.933 329.111 222.933H324.065C323.575 222.933 323.265 222.624 323.227 222.342L329.945 222.186Z" fill="white" stroke="black"/>
<path d="M384.464 239.792L384.464 239.793C384.556 240.108 384.287 240.591 383.642 240.591H377.443C376.982 240.591 376.672 240.312 376.613 240.041L376.613 240.041L376.086 237.642L376.086 237.642C376.018 237.33 376.298 236.877 376.917 236.877H382.948C383.386 236.877 383.694 237.132 383.77 237.394L383.77 237.394L384.464 239.792Z" fill="white" stroke="black"/>
<path d="M382.788 233.995L382.788 233.995C382.88 234.311 382.612 234.793 381.967 234.793H376.174C375.713 234.793 375.403 234.515 375.343 234.244L375.343 234.243L374.817 231.845L374.817 231.845C374.748 231.533 375.029 231.08 375.647 231.08H381.272C381.711 231.08 382.018 231.334 382.094 231.596L382.094 231.596L382.788 233.995Z" fill="white" stroke="black"/>
<path d="M389.074 226.271L389.075 226.271L389.753 228.171C389.816 228.354 389.776 228.542 389.637 228.703C389.495 228.867 389.25 228.996 388.938 228.996H384.349C383.911 228.996 383.603 228.741 383.527 228.48L383.527 228.48L383.013 226.703L383.013 226.703C382.922 226.387 383.19 225.905 383.835 225.905H388.448C388.78 225.905 389.01 226.09 389.074 226.271Z" fill="white" stroke="black"/>
<path d="M374.261 239.825C374.329 240.138 374.049 240.59 373.43 240.59H366.837C366.364 240.59 366.053 240.298 366.003 240.022C366.003 240.022 366.003 240.022 366.003 240.022L365.567 237.624L374.261 239.825ZM374.261 239.825L374.261 239.825L373.734 237.426L373.734 237.426C373.675 237.155 373.365 236.877 372.904 236.877H366.401C365.796 236.877 365.511 237.313 365.567 237.624L374.261 239.825Z" fill="white" stroke="black"/>
<path d="M342.13 239.95L342.13 239.95C342.198 240.262 341.918 240.715 341.299 240.715H334.923C334.45 240.715 334.139 240.423 334.089 240.147C334.089 240.147 334.089 240.147 334.089 240.147L333.653 237.749L333.653 237.748C333.596 237.439 333.882 237.002 334.487 237.002H340.773C341.234 237.002 341.544 237.28 341.604 237.551L341.604 237.551L342.13 239.95Z" fill="white" stroke="black"/>
<path d="M324.981 243.523L324.981 243.523C324.94 243.216 325.232 242.799 325.819 242.799H331.549H331.549C332.022 242.799 332.333 243.09 332.383 243.366C332.383 243.366 332.383 243.366 332.383 243.366L332.819 245.765C332.876 246.075 332.59 246.512 331.985 246.512H326.141C325.652 246.512 325.342 246.203 325.303 245.921C325.303 245.921 325.303 245.921 325.303 245.921C325.303 245.921 325.303 245.921 325.303 245.921L324.981 243.523Z" fill="white" stroke="black"/>
<path d="M353.601 245.714L353.601 245.714C353.692 246.03 353.424 246.512 352.779 246.512H346.58C346.119 246.512 345.809 246.234 345.749 245.963L345.749 245.962L345.223 243.564L345.223 243.564C345.155 243.251 345.434 242.799 346.054 242.799H352.085C352.523 242.799 352.831 243.053 352.907 243.315L352.907 243.315L353.601 245.714Z" fill="white" stroke="black"/>
<path d="M343.401 245.748L343.401 245.748L342.875 243.348C342.816 243.077 342.506 242.799 342.045 242.799H335.541C334.937 242.799 334.651 243.235 334.708 243.546L343.401 245.748ZM343.401 245.748C343.47 246.06 343.19 246.512 342.571 246.512H335.977C335.505 246.512 335.194 246.22 335.144 245.944C335.144 245.944 335.144 245.944 335.144 245.944L334.708 243.546L343.401 245.748Z" fill="white" stroke="black"/>
</g>
<g opacity="0.2">
<path d="M196.022 236.113L195.829 238.81L195.828 238.81C195.813 239.021 195.58 239.292 195.16 239.292H188.138C187.66 239.292 187.446 238.958 187.471 238.741L187.471 238.741L187.786 236.044L187.786 236.043C187.81 235.836 188.046 235.578 188.452 235.578H195.354C195.818 235.578 196.038 235.896 196.022 236.113L196.022 236.113Z" fill="white" stroke="black"/>
<path d="M205.761 227.196L205.761 227.196C205.757 227.409 205.527 227.697 205.092 227.697H199.599C199.135 227.697 198.915 227.379 198.931 227.163L198.931 227.162L199.08 225.088L199.08 225.088C199.095 224.877 199.328 224.606 199.748 224.606H205.132C205.58 224.606 205.806 224.906 205.801 225.122L205.761 227.196Z" fill="white" stroke="black"/>
<path d="M196.81 225.14L196.81 225.14L196.661 227.215C196.661 227.215 196.661 227.215 196.661 227.215C196.646 227.426 196.413 227.697 195.993 227.697H189.697L189.696 227.696H189.489C189.011 227.696 188.797 227.364 188.823 227.146L188.823 227.146L189.065 225.071L189.065 225.07C189.089 224.864 189.325 224.606 189.731 224.606H196.142C196.606 224.606 196.826 224.924 196.81 225.14Z" fill="white" stroke="black"/>
<path d="M216.343 227.697H208.136C208.077 227.697 208.037 227.676 208.018 227.659C208.013 227.655 208.01 227.651 208.008 227.649L208.066 224.654C208.068 224.652 208.072 224.648 208.078 224.642C208.098 224.626 208.138 224.606 208.195 224.606H216.343C216.401 224.606 216.442 224.626 216.461 224.643C216.467 224.648 216.47 224.652 216.472 224.654V227.649C216.47 227.651 216.467 227.655 216.461 227.66C216.441 227.677 216.401 227.697 216.343 227.697ZM208.006 227.646C208.006 227.646 208.006 227.646 208.007 227.647L208.006 227.646ZM208.066 224.656C208.065 224.657 208.065 224.657 208.065 224.657L208.066 224.656ZM216.473 224.657C216.473 224.657 216.473 224.656 216.473 224.655L216.473 224.657ZM216.474 227.646C216.474 227.646 216.473 227.646 216.473 227.647L216.474 227.646Z" fill="white" stroke="black"/>
<path d="M248.865 227.697H240.305C240.246 227.697 240.206 227.677 240.187 227.66C240.181 227.655 240.178 227.651 240.176 227.649V224.654C240.178 224.652 240.181 224.648 240.187 224.643C240.207 224.626 240.247 224.606 240.305 224.606H248.865C248.923 224.606 248.963 224.626 248.983 224.643C248.989 224.648 248.992 224.652 248.994 224.654V227.649C248.992 227.651 248.989 227.655 248.983 227.66C248.963 227.677 248.923 227.697 248.865 227.697ZM240.174 227.646C240.174 227.646 240.175 227.646 240.175 227.647L240.174 227.646ZM240.174 224.657C240.174 224.657 240.174 224.657 240.175 224.656L240.174 224.657ZM248.995 224.657C248.995 224.657 248.995 224.656 248.995 224.655L248.995 224.657ZM248.995 227.646C248.995 227.646 248.995 227.646 248.995 227.647L248.995 227.646Z" fill="white" stroke="black"/>
<path d="M237.792 227.697H230.019C229.961 227.697 229.921 227.677 229.901 227.66C229.896 227.655 229.892 227.651 229.891 227.649V224.654C229.892 224.652 229.896 224.648 229.901 224.643C229.921 224.626 229.961 224.606 230.019 224.606H237.792C237.85 224.606 237.891 224.626 237.91 224.643C237.916 224.648 237.919 224.652 237.921 224.654V227.649C237.919 227.651 237.916 227.655 237.91 227.66C237.89 227.677 237.85 227.697 237.792 227.697ZM229.889 227.646C229.889 227.646 229.889 227.646 229.89 227.647L229.889 227.646ZM229.889 224.657C229.889 224.657 229.889 224.657 229.89 224.656L229.889 224.657ZM237.922 224.657C237.922 224.657 237.922 224.656 237.922 224.655L237.922 224.657ZM237.922 227.646C237.923 227.646 237.922 227.646 237.922 227.647L237.922 227.646Z" fill="white" stroke="black"/>
<path d="M251.378 227.697H251.359C251.311 227.693 251.278 227.676 251.261 227.661C251.255 227.656 251.252 227.652 251.25 227.65V224.655C251.252 224.653 251.255 224.649 251.261 224.644C251.281 224.627 251.321 224.606 251.378 224.606H260.147C260.206 224.606 260.247 224.627 260.266 224.644C260.271 224.649 260.274 224.652 260.276 224.654L260.218 227.648C260.216 227.651 260.213 227.655 260.206 227.66C260.186 227.677 260.146 227.697 260.089 227.697H251.378ZM251.248 227.647C251.248 227.647 251.249 227.647 251.249 227.648L251.248 227.647ZM251.248 224.658C251.248 224.658 251.248 224.657 251.249 224.657L251.248 224.658ZM260.278 224.658C260.278 224.658 260.278 224.657 260.277 224.656L260.278 224.658ZM260.219 227.647C260.219 227.646 260.22 227.645 260.22 227.645L260.219 227.647Z" fill="white" stroke="black"/>
<path d="M227.506 227.697H218.859C218.801 227.697 218.761 227.677 218.741 227.66C218.735 227.655 218.732 227.651 218.73 227.649V224.654C218.732 224.652 218.735 224.648 218.741 224.643C218.761 224.626 218.801 224.606 218.859 224.606H227.506C227.564 224.606 227.604 224.626 227.624 224.643C227.629 224.648 227.633 224.652 227.634 224.654V227.649C227.633 227.651 227.629 227.655 227.624 227.66C227.604 227.677 227.564 227.697 227.506 227.697ZM218.729 227.646C218.729 227.646 218.729 227.646 218.729 227.647L218.729 227.646ZM218.729 224.657C218.729 224.657 218.729 224.657 218.729 224.656L218.729 224.657ZM227.636 224.657C227.636 224.657 227.636 224.656 227.635 224.655L227.636 224.657ZM227.636 227.646C227.636 227.646 227.636 227.646 227.635 227.647L227.636 227.646Z" fill="white" stroke="black"/>
<path d="M281.487 239.092L281.487 239.092C281.493 239.219 281.35 239.456 280.996 239.456H273.191C272.852 239.456 272.702 239.235 272.7 239.105C272.7 239.105 272.7 239.105 272.7 239.105L272.641 236.101C272.638 235.973 272.784 235.742 273.132 235.742H280.371V235.743H280.871C281.204 235.743 281.357 235.958 281.362 236.087L281.362 236.087L281.487 239.092Z" fill="white" stroke="black"/>
<path d="M293.025 235.742H293.059C293.357 235.756 293.504 235.95 293.515 236.075L293.782 239.079L293.782 239.079C293.794 239.207 293.658 239.455 293.292 239.455H284.237C283.904 239.455 283.752 239.239 283.747 239.11L283.747 239.11L283.621 236.106L283.621 236.106C283.616 235.978 283.758 235.742 284.112 235.742H293.025Z" fill="white" stroke="black"/>
<path d="M198.289 236.06L198.289 236.06C198.304 235.85 198.537 235.578 198.957 235.578H204.915C205.362 235.578 205.588 235.879 205.584 236.094C205.584 236.094 205.584 236.094 205.584 236.094L205.531 238.791L205.531 238.791C205.527 239.004 205.298 239.292 204.862 239.292H198.763C198.299 239.292 198.079 238.974 198.095 238.758L198.095 238.758L198.289 236.06Z" fill="white" stroke="black"/>
<path d="M283.504 233.15L283.504 233.15L283.38 230.156V230.155L283.379 230.145C283.374 230.017 283.516 229.781 283.87 229.781H292.509C292.83 229.781 292.988 229.985 292.999 230.115L293.267 233.119L293.267 233.119C293.278 233.247 293.142 233.495 292.776 233.495H283.995C283.662 233.495 283.51 233.279 283.504 233.15Z" fill="white" stroke="black"/>
<path d="M260.055 235.617C260.06 235.622 260.063 235.625 260.065 235.627L259.997 239.21L259.997 239.211C259.996 239.238 259.997 239.265 259.999 239.293H251.378C251.32 239.293 251.28 239.273 251.261 239.256C251.255 239.251 251.252 239.247 251.25 239.245V235.628C251.252 235.626 251.255 235.622 251.261 235.617C251.281 235.6 251.321 235.579 251.378 235.579H259.937C259.996 235.579 260.036 235.6 260.055 235.617ZM251.248 239.242C251.248 239.242 251.249 239.242 251.249 239.243L251.248 239.242ZM251.248 235.631C251.248 235.631 251.248 235.631 251.249 235.63L251.248 235.631Z" fill="white" stroke="black"/>
<path d="M270.363 235.615C270.369 235.621 270.372 235.624 270.374 235.627L270.378 235.827L270.379 235.828L270.445 239.244C270.443 239.246 270.44 239.25 270.435 239.255C270.416 239.272 270.375 239.292 270.317 239.292H262.249C262.25 239.277 262.25 239.262 262.251 239.246L262.251 239.245L262.32 235.627C262.322 235.625 262.325 235.621 262.332 235.615C262.352 235.598 262.392 235.578 262.449 235.578H270.246C270.303 235.578 270.343 235.598 270.363 235.615ZM270.446 239.242C270.446 239.241 270.447 239.241 270.447 239.241L270.446 239.242ZM262.318 235.63C262.318 235.63 262.319 235.63 262.319 235.629L262.318 235.63Z" fill="white" stroke="black"/>
<path d="M237.791 239.292H229.888C229.89 239.271 229.89 239.249 229.89 239.227V235.627C229.892 235.625 229.895 235.621 229.901 235.616C229.921 235.599 229.961 235.578 230.019 235.578H237.791C237.85 235.578 237.89 235.599 237.909 235.616C237.915 235.621 237.918 235.624 237.92 235.627V239.244C237.918 239.246 237.915 239.25 237.909 239.255C237.889 239.272 237.849 239.292 237.791 239.292ZM229.889 235.63C229.889 235.63 229.889 235.63 229.889 235.629L229.889 235.63ZM237.922 235.63C237.921 235.63 237.921 235.629 237.921 235.628L237.922 235.63ZM237.922 239.241C237.922 239.241 237.921 239.241 237.921 239.242L237.922 239.241ZM227.634 239.227C227.634 239.249 227.634 239.271 227.636 239.292H218.728C218.729 239.271 218.73 239.249 218.73 239.227V235.627C218.732 235.625 218.735 235.621 218.741 235.616C218.76 235.599 218.801 235.578 218.858 235.578H227.505C227.563 235.578 227.603 235.599 227.623 235.616C227.629 235.621 227.632 235.624 227.634 235.627V239.227ZM218.728 235.63C218.728 235.63 218.728 235.63 218.729 235.629L218.728 235.63ZM227.635 235.63C227.635 235.63 227.635 235.629 227.635 235.628L227.635 235.63ZM216.473 239.227C216.473 239.249 216.473 239.271 216.475 239.292H207.91C207.851 239.292 207.811 239.271 207.791 239.254C207.786 239.25 207.783 239.247 207.781 239.244L207.852 235.627C207.854 235.625 207.857 235.621 207.864 235.615C207.884 235.598 207.924 235.578 207.981 235.578H216.344C216.403 235.578 216.443 235.599 216.462 235.616C216.468 235.621 216.471 235.624 216.473 235.627V239.227ZM207.78 239.241C207.78 239.241 207.78 239.242 207.78 239.243L207.78 239.241ZM207.851 235.628C207.851 235.629 207.851 235.63 207.851 235.63L207.851 235.628ZM216.474 235.63C216.474 235.63 216.474 235.629 216.474 235.628L216.474 235.63Z" fill="white" stroke="black"/>
<path d="M240.305 235.578H248.865C248.923 235.578 248.963 235.599 248.983 235.616C248.989 235.621 248.992 235.624 248.994 235.627V239.244C248.992 239.246 248.989 239.25 248.983 239.255C248.963 239.272 248.923 239.292 248.865 239.292H240.305C240.246 239.292 240.206 239.272 240.187 239.255C240.181 239.25 240.178 239.246 240.176 239.244V235.627C240.178 235.625 240.181 235.621 240.187 235.616C240.207 235.599 240.247 235.578 240.305 235.578ZM248.995 235.63C248.995 235.63 248.995 235.629 248.994 235.628L248.995 235.63ZM248.995 239.241C248.995 239.241 248.995 239.241 248.995 239.242L248.995 239.241ZM240.174 239.241C240.174 239.241 240.175 239.242 240.175 239.243L240.174 239.241ZM240.174 235.63C240.174 235.63 240.174 235.63 240.175 235.629L240.174 235.63Z" fill="white" stroke="black"/>
<path d="M195.77 229.782H195.81C196.247 229.799 196.454 230.105 196.439 230.315L196.439 230.316L196.245 233.013L196.245 233.013C196.229 233.224 195.997 233.495 195.576 233.495H188.814C188.336 233.495 188.122 233.162 188.147 232.944L188.147 232.944L188.462 230.247L188.462 230.246C188.486 230.04 188.721 229.782 189.128 229.782H195.77Z" fill="white" stroke="black"/>
<path d="M281.004 227.496L281.004 227.497C281.009 227.624 280.867 227.861 280.513 227.861H272.964C272.624 227.861 272.475 227.64 272.472 227.511C272.472 227.511 272.472 227.511 272.472 227.511L272.426 225.129C272.426 225.129 272.426 225.129 272.426 225.129C272.426 225.129 272.426 225.129 272.426 225.129C272.423 225 272.569 224.77 272.917 224.77H280.414C280.747 224.77 280.899 224.985 280.905 225.115L280.905 225.115L281.004 227.496Z" fill="white" stroke="black"/>
<path d="M262.972 227.697H269.723C270.071 227.697 270.217 227.467 270.215 227.338L270.215 227.338M262.972 227.697L270.714 227.328L270.215 227.338M262.972 227.697C262.624 227.697 262.478 227.466 262.481 227.338C262.481 227.338 262.481 227.338 262.481 227.338L262.526 224.956C262.529 224.826 262.679 224.606 263.018 224.606H269.677C270.015 224.606 270.165 224.826 270.168 224.956M262.972 227.697L270.168 224.956M270.215 227.338L270.168 224.956M270.215 227.338L270.168 224.956M270.168 224.956C270.168 224.956 270.168 224.956 270.168 224.956M270.168 224.956L270.168 224.956" fill="white" stroke="black"/>
<path d="M208.094 229.782H216.344C216.402 229.782 216.442 229.802 216.462 229.819C216.467 229.824 216.471 229.828 216.472 229.83V233.447C216.471 233.449 216.467 233.453 216.462 233.458C216.442 233.475 216.401 233.496 216.344 233.496H208.023C207.964 233.496 207.924 233.475 207.904 233.458C207.899 233.453 207.896 233.45 207.895 233.447L207.965 229.83C207.967 229.828 207.971 229.824 207.977 229.818C207.997 229.802 208.037 229.782 208.094 229.782ZM216.474 229.833C216.474 229.833 216.474 229.832 216.473 229.831L216.474 229.833ZM216.474 233.444C216.474 233.444 216.474 233.444 216.473 233.445L216.474 233.444ZM207.893 233.444C207.893 233.444 207.893 233.445 207.893 233.446L207.893 233.444ZM207.965 229.832C207.964 229.833 207.964 229.833 207.964 229.833L207.965 229.832Z" fill="white" stroke="black"/>
<path d="M205.646 232.994L205.646 232.994C205.642 233.206 205.412 233.495 204.977 233.495H199.181C198.717 233.495 198.497 233.177 198.513 232.96L198.513 232.96L198.707 230.263L198.707 230.263C198.722 230.052 198.955 229.781 199.375 229.781H205.03C205.477 229.781 205.703 230.081 205.699 230.297C205.699 230.297 205.699 230.297 205.699 230.297L205.646 232.994Z" fill="white" stroke="black"/>
<path d="M318.963 221.934L318.963 221.934C318.994 222.17 318.766 222.523 318.264 222.523H305.563H305.562C305.149 222.523 304.897 222.264 304.864 222.044C304.864 222.044 304.864 222.044 304.864 222.044L304.673 220.776L304.673 220.776C304.637 220.541 304.86 220.183 305.366 220.18L305.366 220.18L318.083 220.111C318.083 220.111 318.083 220.111 318.083 220.111C318.083 220.111 318.083 220.111 318.083 220.111C318.505 220.109 318.758 220.374 318.787 220.596L318.787 220.597L318.963 221.934ZM319.459 221.869L319.283 220.532L304.369 222.119C304.447 222.636 304.958 223.023 305.562 223.023H305.563H318.264C318.982 223.023 319.54 222.484 319.459 221.869Z" fill="white" stroke="black"/>
<path d="M295.267 230.157L295.267 230.157C295.255 230.029 295.391 229.782 295.757 229.782H303.308C303.615 229.782 303.777 229.972 303.796 230.101L304.248 233.106L304.248 233.106C304.26 233.182 304.236 233.268 304.154 233.348C304.071 233.43 303.933 233.496 303.76 233.496H296.024C295.703 233.496 295.546 233.291 295.534 233.162C295.534 233.162 295.534 233.162 295.534 233.162L295.267 230.157Z" fill="white" stroke="black"/>
<path d="M320.796 235.902L320.796 235.902L321.19 238.907C321.2 238.983 321.175 239.068 321.093 239.147C321.009 239.228 320.872 239.292 320.701 239.292H307.9C307.594 239.292 307.431 239.102 307.412 238.973C307.412 238.973 307.412 238.973 307.412 238.973L306.96 235.968L306.96 235.968C306.948 235.892 306.972 235.806 307.054 235.726C307.137 235.644 307.275 235.578 307.448 235.578H320.307C320.619 235.578 320.779 235.773 320.796 235.902Z" fill="white" stroke="black"/>
<path d="M178.911 233.495H178.872C178.409 233.477 178.213 233.141 178.247 232.928L178.247 232.928L178.684 230.231L178.684 230.23C178.717 230.025 178.954 229.782 179.348 229.782H185.518C185.996 229.782 186.21 230.115 186.184 230.332L186.184 230.332L185.869 233.03L185.869 233.03C185.845 233.237 185.61 233.495 185.203 233.495H178.911Z" fill="white" stroke="black"/>
<path d="M251.378 229.782H258.814L258.813 229.782H260.047C260.106 229.782 260.147 229.803 260.166 229.82C260.171 229.825 260.174 229.828 260.176 229.83L260.107 233.447C260.105 233.449 260.101 233.453 260.095 233.459C260.075 233.476 260.035 233.496 259.978 233.496H251.378C251.32 233.496 251.28 233.475 251.261 233.458C251.255 233.453 251.252 233.45 251.25 233.447V229.83C251.252 229.828 251.255 229.824 251.261 229.819C251.281 229.802 251.321 229.782 251.378 229.782ZM260.178 229.834C260.178 229.834 260.177 229.833 260.177 229.832L260.178 229.834ZM260.107 233.445C260.108 233.444 260.108 233.444 260.108 233.444L260.107 233.445ZM251.248 233.444C251.248 233.444 251.249 233.445 251.249 233.446L251.248 233.444ZM251.248 229.833C251.248 229.833 251.248 229.833 251.249 229.832L251.248 229.833Z" fill="white" stroke="black"/>
<path d="M262.365 233.495L262.436 229.782H270.265L270.337 233.495H262.365Z" fill="white" stroke="black"/>
<path d="M218.855 229.782H227.502C227.56 229.782 227.6 229.802 227.62 229.819C227.625 229.824 227.629 229.828 227.63 229.83V233.447C227.629 233.45 227.625 233.453 227.62 233.458C227.6 233.475 227.56 233.496 227.502 233.496H218.855C218.797 233.496 218.757 233.475 218.737 233.458C218.731 233.453 218.728 233.45 218.727 233.447V229.83C218.728 229.828 218.732 229.824 218.737 229.819C218.757 229.802 218.797 229.782 218.855 229.782ZM227.632 229.833C227.632 229.833 227.632 229.832 227.631 229.831L227.632 229.833ZM227.632 233.444C227.632 233.444 227.632 233.445 227.631 233.446L227.632 233.444ZM218.725 233.444C218.725 233.444 218.725 233.445 218.726 233.446L218.725 233.444ZM218.725 229.833C218.725 229.833 218.725 229.833 218.726 229.832L218.725 229.833Z" fill="white" stroke="black"/>
<path d="M273.019 229.944H280.629C280.963 229.944 281.115 230.16 281.12 230.289L281.12 230.289L281.245 233.293L281.245 233.294C281.251 233.422 281.108 233.658 280.754 233.658H273.077C272.739 233.658 272.589 233.437 272.586 233.308C272.586 233.308 272.586 233.308 272.586 233.308L272.527 230.304C272.525 230.175 272.671 229.944 273.019 229.944Z" fill="white" stroke="black"/>
<path d="M230.019 229.782H237.792C237.85 229.782 237.891 229.802 237.91 229.819C237.916 229.824 237.919 229.828 237.921 229.83V233.447C237.919 233.449 237.916 233.453 237.91 233.458C237.89 233.475 237.85 233.496 237.792 233.496H230.019C229.961 233.496 229.921 233.475 229.901 233.458C229.896 233.453 229.892 233.45 229.891 233.447V229.83C229.892 229.828 229.896 229.824 229.901 229.819C229.921 229.802 229.961 229.782 230.019 229.782ZM237.922 229.833C237.922 229.833 237.922 229.832 237.922 229.831L237.922 229.833ZM237.922 233.444C237.923 233.444 237.922 233.444 237.922 233.445L237.922 233.444ZM229.889 233.444C229.889 233.444 229.889 233.445 229.89 233.446L229.889 233.444ZM229.889 229.833C229.889 229.833 229.889 229.833 229.89 229.832L229.889 229.833Z" fill="white" stroke="black"/>
<path d="M240.305 229.782H248.865C248.923 229.782 248.963 229.802 248.983 229.819C248.989 229.824 248.992 229.828 248.994 229.83V233.447C248.992 233.449 248.989 233.453 248.983 233.458C248.963 233.475 248.923 233.496 248.865 233.496H240.305C240.246 233.496 240.206 233.475 240.187 233.458C240.181 233.453 240.178 233.45 240.176 233.447V229.83C240.178 229.828 240.181 229.824 240.187 229.819C240.207 229.802 240.247 229.782 240.305 229.782ZM248.995 229.833C248.995 229.833 248.995 229.832 248.995 229.832L248.995 229.833ZM248.995 233.444C248.995 233.444 248.995 233.444 248.995 233.445L248.995 233.444ZM240.174 233.444C240.174 233.444 240.175 233.445 240.175 233.446L240.174 233.444ZM240.174 229.833C240.174 229.833 240.174 229.833 240.175 229.832L240.174 229.833Z" fill="white" stroke="black"/>
<path d="M292.049 224.606H292.084C292.382 224.62 292.529 224.815 292.54 224.94L292.752 227.321L292.752 227.321C292.763 227.449 292.627 227.697 292.262 227.697H283.754C283.421 227.697 283.269 227.482 283.264 227.352L283.264 227.352L283.164 224.971L283.164 224.97C283.159 224.843 283.301 224.606 283.655 224.606H292.049Z" fill="white" stroke="black"/>
<path d="M198.031 241.376H270.359C270.416 241.376 270.456 241.396 270.476 241.413C270.482 241.418 270.486 241.422 270.487 241.425L270.597 247.048C270.595 247.05 270.593 247.053 270.588 247.057C270.569 247.074 270.529 247.095 270.471 247.095L270.47 247.095L197.591 247.61L197.59 247.61C197.529 247.611 197.489 247.589 197.47 247.571C197.466 247.568 197.463 247.565 197.461 247.563L197.903 241.425C197.904 241.422 197.908 241.418 197.916 241.411C197.937 241.395 197.976 241.376 198.031 241.376ZM270.489 241.427C270.489 241.427 270.489 241.427 270.488 241.426L270.489 241.427ZM270.597 247.055C270.597 247.055 270.597 247.055 270.597 247.054L270.597 247.055ZM270.598 247.046C270.599 247.045 270.599 247.044 270.599 247.044L270.598 247.046ZM197.459 247.559C197.459 247.559 197.46 247.56 197.46 247.561L197.459 247.559ZM197.901 241.427C197.901 241.427 197.902 241.427 197.902 241.426L197.901 241.427Z" fill="white" stroke="black"/>
<path d="M281.322 247.182L281.322 247.182C281.673 247.179 281.814 246.945 281.809 246.817L281.603 241.884L281.603 241.884C281.598 241.755 281.446 241.539 281.112 241.539H273.245C272.898 241.539 272.752 241.77 272.754 241.899L281.322 247.182ZM281.322 247.182L273.346 247.238C273.346 247.238 273.346 247.238 273.346 247.238C273.006 247.241 272.854 247.018 272.851 246.888C272.851 246.888 272.851 246.888 272.851 246.888L272.754 241.899L281.322 247.182Z" fill="white" stroke="black"/>
<path d="M187.112 241.841L187.112 241.841C187.136 241.634 187.371 241.376 187.778 241.376H194.94H194.94C195.405 241.376 195.624 241.694 195.609 241.911L195.609 241.911L195.232 247.149C195.217 247.358 194.986 247.628 194.569 247.631L187.168 247.683L187.167 247.683C186.687 247.687 186.469 247.352 186.495 247.132C186.495 247.132 186.495 247.132 186.495 247.132L187.112 241.841Z" fill="white" stroke="black"/>
<path d="M175.944 233.047L175.944 233.047C175.911 233.252 175.674 233.496 175.28 233.496H164.099C163.586 233.496 163.389 233.125 163.44 232.904L163.44 232.904L164.057 230.206L164.057 230.206C164.102 230.006 164.341 229.782 164.716 229.782H175.717C176.208 229.782 176.416 230.13 176.381 230.349L176.381 230.349L175.944 233.047Z" fill="white" stroke="black"/>
<path d="M293.575 241.539H293.541H284.354C284 241.539 283.858 241.776 283.864 241.903L283.864 241.904L284.067 246.814L284.067 246.814C284.073 246.944 284.227 247.161 284.563 247.159L284.563 247.159L293.977 247.092L293.977 247.092C294.339 247.09 294.474 246.845 294.463 246.716C294.463 246.716 294.463 246.716 294.463 246.716L294.032 241.873L293.575 241.539ZM293.575 241.539C293.874 241.553 294.021 241.748 294.032 241.873L293.575 241.539Z" fill="white" stroke="black"/>
<path d="M184.21 247.244L184.206 247.277C184.163 247.476 183.934 247.707 183.55 247.71C183.55 247.71 183.55 247.71 183.55 247.71L176.605 247.759L176.605 247.759C176.11 247.763 175.899 247.412 175.935 247.191C175.935 247.191 175.935 247.191 175.935 247.191L176.804 241.826L176.804 241.825C176.837 241.621 177.074 241.377 177.468 241.377H184.163C184.642 241.377 184.855 241.709 184.83 241.928L184.83 241.928L184.21 247.244Z" fill="white" stroke="black"/>
<path d="M177.743 236.027L177.743 236.027C177.776 235.822 178.013 235.578 178.407 235.578H184.34V235.579H184.84C185.318 235.579 185.532 235.912 185.506 236.13L185.506 236.13L185.192 238.827L185.191 238.828C185.168 239.035 184.932 239.292 184.525 239.292H177.97C177.478 239.292 177.27 238.944 177.306 238.725L177.306 238.725L177.743 236.027Z" fill="white" stroke="black"/>
<path d="M175.003 238.843L175.003 238.844C174.97 239.049 174.733 239.292 174.339 239.292H162.771C162.258 239.292 162.061 238.921 162.111 238.701L162.112 238.7L162.729 236.003L162.729 236.003C162.774 235.803 163.013 235.578 163.388 235.578H174.776C175.267 235.578 175.475 235.927 175.44 236.146L175.44 236.146L175.003 238.843Z" fill="white" stroke="black"/>
<path d="M161.404 241.801L161.404 241.8C161.449 241.601 161.688 241.376 162.063 241.376H173.838H173.839C174.331 241.376 174.539 241.724 174.503 241.944L174.503 241.944L173.629 247.335L173.629 247.335C173.596 247.539 173.362 247.782 172.971 247.784L172.971 247.784L160.817 247.87C160.817 247.87 160.817 247.87 160.817 247.87C160.299 247.873 160.1 247.499 160.151 247.278L160.151 247.278L161.404 241.801Z" fill="white" stroke="black"/>
<path d="M296.298 241.752L296.298 241.752C296.286 241.624 296.422 241.376 296.788 241.376H304.553V241.377H305.053C305.36 241.377 305.522 241.567 305.541 241.696L306.258 246.456C306.269 246.533 306.245 246.618 306.165 246.698C306.082 246.779 305.946 246.845 305.774 246.846L305.773 246.846L297.221 246.907L297.221 246.907C296.897 246.909 296.738 246.703 296.726 246.573L296.726 246.573L296.298 241.752Z" fill="white" stroke="black"/>
<path d="M321.467 241.793L321.467 241.793C321.439 241.608 321.222 241.376 320.848 241.376H308.32C308.146 241.376 308.009 241.442 307.925 241.523C307.844 241.603 307.82 241.689 307.831 241.766L307.831 241.766L308.544 246.504L308.544 246.504C308.563 246.633 308.727 246.825 309.037 246.823L309.037 246.823L321.679 246.733C321.68 246.733 321.68 246.733 321.68 246.733L321.467 241.793ZM321.467 241.793L322.165 246.352L321.467 241.793Z" fill="white" stroke="black"/>
<path d="M177.723 222.074L177.723 222.074L177.825 221.447C177.825 221.447 177.825 221.447 177.825 221.447C177.86 221.227 177.651 220.876 177.156 220.879L177.156 220.879M177.723 222.074L177.153 220.379L177.156 220.879M177.723 222.074C177.69 222.279 177.453 222.523 177.059 222.523H166.611C166.098 222.523 165.901 222.152 165.951 221.931L165.951 221.931L166.082 221.36L166.082 221.36L166.082 221.36C166.127 221.161 166.363 220.937 166.737 220.935L177.723 222.074ZM177.156 220.879L166.737 220.935L177.156 220.879Z" fill="white" stroke="black"/>
<path d="M295.782 235.954L295.782 235.954C295.771 235.826 295.907 235.579 296.272 235.579H304.18C304.487 235.579 304.649 235.769 304.668 235.898L305.12 238.902L305.12 238.903C305.132 238.979 305.108 239.065 305.026 239.145C304.943 239.227 304.805 239.292 304.632 239.292H296.54C296.219 239.292 296.061 239.088 296.05 238.959C296.05 238.959 296.05 238.958 296.05 238.958L295.782 235.954Z" fill="white" stroke="black"/>
<path d="M320.033 230.105L320.033 230.105L320.427 233.109C320.427 233.109 320.427 233.109 320.427 233.109C320.437 233.186 320.412 233.271 320.33 233.35C320.246 233.43 320.11 233.495 319.938 233.495H307.525V233.494H307.025C306.718 233.494 306.556 233.304 306.537 233.175C306.537 233.175 306.537 233.175 306.537 233.175L306.085 230.171L306.085 230.171C306.073 230.094 306.097 230.008 306.179 229.928C306.262 229.846 306.4 229.781 306.573 229.781H319.544C319.856 229.781 320.016 229.975 320.033 230.105Z" fill="white" stroke="black"/>
<path d="M319.356 224.929L319.356 224.93L319.668 227.311C319.678 227.388 319.653 227.473 319.571 227.552C319.487 227.633 319.351 227.697 319.179 227.697H306.362L306.361 227.696H306.154C305.847 227.696 305.685 227.507 305.666 227.378C305.666 227.378 305.666 227.377 305.666 227.377L305.308 224.996L305.308 224.995C305.296 224.919 305.32 224.833 305.402 224.753C305.485 224.671 305.623 224.606 305.796 224.606H318.867C319.179 224.606 319.339 224.8 319.356 224.929Z" fill="white" stroke="black"/>
<path d="M218.859 222.523H218.84C218.791 222.519 218.758 222.501 218.741 222.486C218.735 222.482 218.732 222.478 218.73 222.476V220.701C218.732 220.698 218.735 220.695 218.741 220.69C218.76 220.673 218.8 220.653 218.858 220.652C218.858 220.652 218.858 220.652 218.858 220.652L227.504 220.605C227.504 220.605 227.504 220.605 227.504 220.605C227.563 220.605 227.603 220.625 227.623 220.642C227.629 220.647 227.632 220.651 227.634 220.653V222.475C227.632 222.477 227.629 222.481 227.624 222.485C227.604 222.502 227.564 222.523 227.506 222.523H218.859ZM218.729 222.473C218.729 222.473 218.729 222.473 218.729 222.474L218.729 222.473ZM218.729 220.704C218.729 220.704 218.729 220.703 218.729 220.702L218.729 220.704ZM227.636 220.656C227.636 220.656 227.636 220.656 227.635 220.655L227.636 220.656ZM227.636 222.471C227.636 222.472 227.636 222.472 227.635 222.473L227.636 222.471Z" fill="white" stroke="black"/>
<path d="M260.227 220.426L260.227 220.426C260.286 220.426 260.326 220.446 260.346 220.464C260.351 220.468 260.354 220.471 260.356 220.474L260.317 222.474C260.316 222.476 260.312 222.48 260.306 222.486C260.286 222.503 260.246 222.523 260.189 222.523H251.378C251.32 222.523 251.28 222.502 251.26 222.485C251.255 222.481 251.252 222.477 251.25 222.475V220.523C251.252 220.52 251.255 220.517 251.26 220.512C251.28 220.495 251.32 220.475 251.378 220.474C251.378 220.474 251.378 220.474 251.378 220.474L260.227 220.426ZM260.358 220.477C260.358 220.477 260.358 220.477 260.357 220.476L260.358 220.477ZM260.356 220.467L260.356 220.467C260.356 220.467 260.356 220.467 260.356 220.467ZM260.318 222.473C260.318 222.472 260.319 222.471 260.319 222.471L260.318 222.473ZM251.248 222.472C251.248 222.472 251.249 222.472 251.249 222.473L251.248 222.472ZM251.248 220.526C251.248 220.526 251.248 220.525 251.249 220.524L251.248 220.526Z" fill="white" stroke="black"/>
<path d="M262.74 220.412L262.741 220.412L269.95 220.373C269.951 220.373 269.951 220.373 269.951 220.373C270.008 220.373 270.049 220.393 270.069 220.41C270.076 220.416 270.079 220.42 270.081 220.422L270.121 222.475C270.119 222.477 270.116 222.48 270.111 222.485C270.092 222.502 270.051 222.523 269.993 222.523H262.704C262.645 222.523 262.604 222.502 262.584 222.484C262.579 222.48 262.576 222.477 262.574 222.474L262.613 220.461C262.615 220.459 262.618 220.455 262.624 220.449C262.644 220.432 262.684 220.413 262.74 220.412ZM270.082 220.425C270.082 220.425 270.082 220.425 270.082 220.424L270.082 220.425ZM270.123 222.471C270.123 222.471 270.123 222.472 270.122 222.473L270.123 222.471ZM262.572 222.471C262.572 222.471 262.573 222.472 262.573 222.473L262.572 222.471ZM262.612 220.462C262.612 220.463 262.612 220.464 262.612 220.464L262.612 220.462Z" fill="white" stroke="black"/>
<path d="M230.018 220.59L230.018 220.59L237.791 220.548C237.791 220.548 237.791 220.548 237.791 220.548C237.849 220.548 237.89 220.569 237.91 220.586C237.916 220.591 237.919 220.595 237.921 220.597V222.474C237.919 222.477 237.916 222.48 237.91 222.485C237.89 222.502 237.85 222.523 237.792 222.523H230.519V222.522H230.019C229.96 222.522 229.92 222.501 229.901 222.485C229.895 222.48 229.892 222.476 229.891 222.474V220.639C229.892 220.636 229.895 220.633 229.901 220.628C229.921 220.611 229.96 220.591 230.018 220.59ZM237.923 220.6C237.922 220.6 237.922 220.599 237.922 220.598L237.923 220.6ZM237.923 222.471C237.923 222.471 237.923 222.472 237.922 222.473L237.923 222.471ZM229.889 222.471C229.889 222.471 229.889 222.472 229.89 222.473L229.889 222.471ZM229.889 220.642C229.889 220.642 229.889 220.641 229.89 220.64L229.889 220.642Z" fill="white" stroke="black"/>
<path d="M240.303 220.535L240.303 220.535L248.863 220.488C248.863 220.488 248.864 220.488 248.864 220.488C248.922 220.488 248.963 220.508 248.983 220.525C248.988 220.53 248.992 220.534 248.994 220.536V222.474C248.992 222.477 248.989 222.48 248.983 222.485C248.963 222.502 248.923 222.523 248.865 222.523H240.305C240.246 222.523 240.206 222.502 240.186 222.485C240.181 222.481 240.178 222.477 240.176 222.475V220.583C240.178 220.581 240.181 220.577 240.187 220.572C240.206 220.555 240.246 220.535 240.303 220.535ZM248.995 220.54C248.995 220.54 248.995 220.539 248.995 220.538L248.995 220.54ZM248.995 222.471C248.995 222.471 248.995 222.472 248.995 222.473L248.995 222.471ZM240.174 222.472C240.174 222.472 240.175 222.472 240.175 222.473L240.174 222.472ZM240.174 220.586C240.174 220.586 240.174 220.585 240.175 220.584L240.174 220.586Z" fill="white" stroke="black"/>
<path d="M294.42 220.613L294.418 220.596C294.42 220.465 294.558 220.24 294.906 220.238L294.906 220.238L301.863 220.2L301.864 220.2C302.172 220.198 302.336 220.39 302.355 220.519L302.355 220.519L302.598 222.133L302.598 222.133C302.61 222.21 302.585 222.296 302.504 222.375C302.421 222.457 302.283 222.523 302.11 222.523H295.05C294.728 222.523 294.571 222.318 294.56 222.189L294.42 220.613Z" fill="white" stroke="black"/>
<path d="M280.788 222.321L280.788 222.322C280.794 222.449 280.652 222.685 280.297 222.685H272.863C272.524 222.685 272.375 222.465 272.372 222.336C272.372 222.336 272.372 222.335 272.372 222.335L272.344 220.88C272.344 220.88 272.344 220.88 272.344 220.88C272.344 220.88 272.344 220.88 272.344 220.88C272.341 220.752 272.485 220.523 272.832 220.521C272.832 220.521 272.832 220.521 272.832 220.521L280.232 220.48L280.232 220.48C280.567 220.478 280.721 220.695 280.727 220.825L280.727 220.825L280.788 222.321ZM281.288 222.3L281.226 220.804L271.872 222.345C271.881 222.812 272.321 223.185 272.863 223.185H280.297C280.859 223.185 281.309 222.784 281.288 222.3Z" fill="white" stroke="black"/>
<path d="M292.29 222.147L292.29 222.147L292.152 220.588C292.14 220.458 291.981 220.252 291.659 220.254L291.658 220.254L283.472 220.299L283.472 220.299C283.121 220.301 282.979 220.536 282.985 220.664L292.29 222.147ZM292.29 222.147C292.302 222.275 292.166 222.523 291.8 222.523H284.038V222.522H283.538C283.205 222.522 283.053 222.306 283.047 222.177C283.047 222.177 283.047 222.177 283.047 222.177L282.985 220.664L292.29 222.147Z" fill="white" stroke="black"/>
<path d="M205.862 222.022L205.862 222.022C205.858 222.234 205.629 222.523 205.193 222.523H199.971H199.97C199.506 222.523 199.286 222.205 199.302 221.988L199.302 221.988L199.356 221.236L199.356 221.235C199.371 221.026 199.602 220.756 200.019 220.754L200.019 220.754L205.202 220.725C205.203 220.725 205.203 220.725 205.203 220.725C205.653 220.723 205.881 221.026 205.877 221.242L205.862 222.022ZM200.017 220.254C199.402 220.257 198.895 220.671 198.857 221.2L200.017 220.254Z" fill="white" stroke="black"/>
<path d="M197.035 222.041L197.035 222.041C197.02 222.252 196.787 222.523 196.367 222.523H190.302L190.302 222.522H190.095C189.617 222.522 189.403 222.189 189.428 221.971L189.428 221.971L189.51 221.274C189.51 221.274 189.51 221.274 189.51 221.274C189.534 221.066 189.769 220.81 190.172 220.808L190.172 220.808L196.415 220.774L196.415 220.774C196.882 220.771 197.104 221.091 197.088 221.308L197.088 221.308L197.035 222.041Z" fill="white" stroke="black"/>
<path d="M187.146 222.057L187.146 222.058C187.122 222.265 186.886 222.523 186.479 222.523H180.893L180.892 222.522H180.685C180.193 222.522 179.985 222.173 180.021 221.954L180.021 221.954L180.125 221.308C180.125 221.308 180.125 221.308 180.125 221.308C180.159 221.103 180.394 220.861 180.785 220.859L180.785 220.859L186.554 220.828L186.554 220.828C187.035 220.825 187.251 221.16 187.225 221.379L187.146 222.057Z" fill="white" stroke="black"/>
<path d="M186.544 227.232L186.544 227.232C186.52 227.44 186.284 227.698 185.878 227.698H179.849C179.357 227.698 179.149 227.349 179.185 227.13L179.185 227.13L179.521 225.055L179.521 225.055C179.554 224.85 179.791 224.606 180.185 224.606H186.12C186.598 224.606 186.812 224.939 186.786 225.157L186.786 225.157L186.544 227.232Z" fill="white" stroke="black"/>
<path d="M176.881 227.248L176.881 227.249C176.848 227.453 176.611 227.697 176.217 227.697H165.423C164.91 227.697 164.713 227.326 164.764 227.105L164.764 227.105L165.238 225.03L165.238 225.03C165.284 224.83 165.523 224.606 165.898 224.606H176.553C177.045 224.606 177.253 224.954 177.217 225.173L177.217 225.173L176.881 227.248Z" fill="white" stroke="black"/>
<path d="M208.27 220.709L208.27 220.709L216.342 220.665C216.343 220.665 216.343 220.665 216.343 220.665C216.401 220.665 216.442 220.685 216.462 220.703C216.468 220.708 216.471 220.711 216.473 220.714V222.474C216.471 222.477 216.468 222.48 216.462 222.485C216.442 222.502 216.402 222.523 216.344 222.523H208.238C208.179 222.523 208.138 222.502 208.119 222.485C208.114 222.481 208.111 222.477 208.11 222.475L208.143 220.758C208.145 220.756 208.148 220.752 208.154 220.746C208.174 220.73 208.213 220.71 208.27 220.709ZM216.474 220.717C216.474 220.717 216.474 220.716 216.474 220.715L216.474 220.717ZM216.474 222.471C216.474 222.471 216.474 222.472 216.474 222.473L216.474 222.471ZM208.108 222.472C208.108 222.472 208.108 222.472 208.108 222.473L208.108 222.472ZM208.142 220.76C208.142 220.76 208.141 220.761 208.141 220.761L208.142 220.76Z" fill="white" stroke="black"/>
<path d="M294.81 224.982L294.81 224.982C294.799 224.854 294.935 224.607 295.3 224.607H302.531C302.839 224.607 303 224.797 303.02 224.926L303.378 227.308L303.378 227.308C303.39 227.385 303.365 227.47 303.284 227.55C303.201 227.632 303.063 227.698 302.89 227.698H295.511C295.19 227.698 295.033 227.494 295.021 227.364C295.021 227.364 295.021 227.364 295.021 227.364C295.021 227.364 295.021 227.364 295.021 227.364L294.81 224.982Z" fill="white" stroke="black"/>
</g>
<path opacity="0.2" d="M303.702 216.497H314.81C315.075 216.497 315.28 216.424 315.394 216.344C315.448 216.307 315.468 216.28 315.475 216.267L315.307 215.346C315.307 215.346 315.289 215.295 315.173 215.231C315.048 215.162 314.86 215.11 314.635 215.11L314.635 215.11M303.702 216.497L314.635 215.11M303.702 216.497L303.703 216.496H302.496C302.276 216.496 302.09 216.444 301.966 216.377C301.847 216.312 301.829 216.259 301.828 216.259C301.828 216.259 301.828 216.259 301.828 216.259L301.646 215.387C301.653 215.374 301.673 215.349 301.722 215.314C301.834 215.234 302.038 215.16 302.306 215.158C302.306 215.158 302.306 215.158 302.306 215.158C302.306 215.158 302.306 215.158 302.306 215.158M303.702 216.497L302.306 215.158M314.635 215.11L302.306 215.158M314.635 215.11L302.306 215.158M301.643 215.398C301.642 215.398 301.643 215.395 301.645 215.389C301.645 215.395 301.644 215.398 301.643 215.398ZM315.476 216.265C315.476 216.26 315.478 216.257 315.478 216.257C315.479 216.257 315.478 216.26 315.476 216.265Z" fill="white" stroke="black"/>
<path opacity="0.2" d="M178.567 215.797C178.608 215.826 178.627 215.847 178.635 215.859L178.628 215.89H178.626L178.539 216.278C178.539 216.278 178.519 216.326 178.41 216.385C178.292 216.449 178.115 216.498 177.904 216.498H167.774C167.504 216.498 167.303 216.419 167.201 216.341C167.169 216.317 167.153 216.3 167.145 216.289L167.266 215.909C167.266 215.909 167.266 215.909 167.266 215.909C167.269 215.903 167.295 215.853 167.408 215.795C167.525 215.734 167.696 215.689 167.896 215.688C167.896 215.688 167.896 215.688 167.896 215.688L177.998 215.649C177.998 215.649 177.998 215.649 177.998 215.649C177.998 215.649 177.998 215.649 177.998 215.649C178.26 215.648 178.46 215.72 178.567 215.797ZM167.138 216.275C167.139 216.275 167.142 216.279 167.142 216.285C167.138 216.278 167.137 216.275 167.138 216.275ZM178.64 215.871C178.639 215.871 178.638 215.868 178.637 215.862C178.641 215.868 178.641 215.871 178.64 215.871Z" fill="white" stroke="black"/>
<path opacity="0.2" d="M226.811 215.456L226.811 215.456C226.857 215.456 226.894 215.462 226.922 215.469V216.484C226.894 216.491 226.858 216.497 226.813 216.497H218.43C218.385 216.497 218.348 216.491 218.32 216.484V215.502C218.348 215.495 218.384 215.489 218.428 215.489C218.428 215.489 218.428 215.489 218.428 215.489L226.811 215.456Z" fill="white" stroke="black"/>
<path opacity="0.2" d="M258.539 215.332L258.539 215.332C258.583 215.332 258.619 215.337 258.646 215.344L258.616 216.483C258.588 216.49 258.55 216.497 258.503 216.497H249.961C249.916 216.497 249.88 216.491 249.852 216.484V215.379C249.879 215.371 249.915 215.366 249.959 215.365C249.959 215.365 249.96 215.365 249.96 215.365L258.539 215.332ZM258.711 215.369C258.711 215.369 258.71 215.369 258.71 215.369L258.711 215.369Z" fill="white" stroke="black"/>
<path opacity="0.2" d="M267.968 215.294L267.968 215.294C268.015 215.294 268.054 215.301 268.082 215.308L268.114 216.485C268.087 216.491 268.051 216.497 268.008 216.497H260.942C260.899 216.497 260.863 216.491 260.836 216.485L260.866 215.336C260.894 215.328 260.932 215.322 260.977 215.322C260.977 215.322 260.977 215.322 260.977 215.322L267.968 215.294Z" fill="white" stroke="black"/>
<path opacity="0.2" d="M236.785 215.417L236.785 215.417C236.83 215.417 236.867 215.423 236.896 215.43V216.484C236.868 216.491 236.831 216.497 236.786 216.497H229.25C229.205 216.497 229.169 216.491 229.141 216.484V215.46C229.168 215.453 229.204 215.447 229.248 215.447C229.248 215.447 229.248 215.447 229.248 215.447L236.785 215.417Z" fill="white" stroke="black"/>
<path opacity="0.2" d="M239.223 216.497H239.195C239.163 216.495 239.135 216.49 239.113 216.484V215.421C239.141 215.414 239.177 215.408 239.221 215.408C239.221 215.408 239.221 215.408 239.221 215.408L247.52 215.375L247.52 215.375C247.566 215.375 247.603 215.381 247.631 215.388V216.484C247.603 216.491 247.567 216.497 247.522 216.497H239.223Z" fill="white" stroke="black"/>
<path opacity="0.2" d="M298.909 215.173C298.909 215.173 298.909 215.173 298.909 215.173C299.08 215.172 299.219 215.212 299.307 215.26C299.353 215.285 299.373 215.305 299.381 215.313L299.601 216.371C299.596 216.375 299.59 216.38 299.582 216.385C299.506 216.439 299.355 216.497 299.149 216.497H292.304C292.128 216.497 291.986 216.454 291.901 216.404C291.866 216.384 291.848 216.368 291.839 216.359L291.712 215.329C291.719 215.323 291.728 215.316 291.741 215.307C291.819 215.254 291.967 215.201 292.164 215.2C292.164 215.2 292.164 215.2 292.164 215.2L298.909 215.173ZM299.618 216.355C299.62 216.352 299.621 216.351 299.622 216.351C299.622 216.351 299.621 216.352 299.618 216.355ZM291.833 216.351C291.833 216.351 291.833 216.352 291.834 216.353C291.833 216.352 291.833 216.351 291.833 216.351ZM291.695 215.346C291.695 215.346 291.696 215.344 291.699 215.341C291.697 215.344 291.696 215.346 291.695 215.346Z" fill="white" stroke="black"/>
<path opacity="0.2" d="M278.001 216.61H270.793C270.608 216.61 270.464 216.563 270.38 216.512C270.355 216.497 270.34 216.485 270.331 216.476L270.306 215.529C270.314 215.521 270.327 215.511 270.347 215.498C270.428 215.447 270.573 215.398 270.761 215.397C270.761 215.397 270.761 215.397 270.761 215.397C270.761 215.397 270.762 215.397 270.762 215.397L277.936 215.368C277.936 215.368 277.936 215.368 277.936 215.368C278.119 215.368 278.264 215.414 278.35 215.464C278.379 215.482 278.395 215.496 278.404 215.504L278.46 216.479C278.452 216.486 278.44 216.496 278.422 216.508C278.341 216.56 278.193 216.61 278.001 216.61ZM270.321 216.464C270.321 216.464 270.323 216.466 270.324 216.468C270.322 216.466 270.321 216.464 270.321 216.464ZM270.297 215.538C270.295 215.541 270.294 215.543 270.294 215.543C270.293 215.543 270.294 215.541 270.297 215.538ZM278.413 215.515C278.412 215.515 278.412 215.514 278.41 215.511C278.412 215.514 278.413 215.515 278.413 215.515ZM278.47 216.469C278.472 216.465 278.473 216.464 278.473 216.464C278.474 216.464 278.473 216.466 278.47 216.469Z" fill="white" stroke="black"/>
<path opacity="0.2" d="M289.154 216.497H281.143C280.961 216.497 280.817 216.451 280.733 216.4C280.705 216.383 280.689 216.37 280.68 216.361L280.623 215.374C280.631 215.367 280.643 215.358 280.661 215.346C280.741 215.294 280.887 215.243 281.078 215.243C281.078 215.243 281.078 215.243 281.078 215.243L289.015 215.211C289.015 215.211 289.015 215.211 289.015 215.211C289.193 215.211 289.336 215.254 289.423 215.303C289.458 215.324 289.476 215.34 289.485 215.349L289.611 216.368C289.604 216.374 289.594 216.381 289.58 216.39C289.502 216.443 289.352 216.497 289.154 216.497ZM280.671 216.351C280.672 216.351 280.673 216.352 280.674 216.354C280.672 216.352 280.671 216.351 280.671 216.351ZM280.613 215.384C280.612 215.388 280.61 215.389 280.61 215.389C280.61 215.389 280.611 215.387 280.613 215.384ZM289.491 215.357C289.491 215.357 289.491 215.356 289.49 215.355C289.491 215.356 289.491 215.357 289.491 215.357ZM289.627 216.35C289.627 216.35 289.626 216.352 289.623 216.356C289.625 216.352 289.626 216.35 289.627 216.35Z" fill="white" stroke="black"/>
<path opacity="0.2" d="M206.315 216.303L206.33 215.758C206.341 215.363 205.826 215.039 205.189 215.041L206.315 216.303ZM200.165 215.561L205.191 215.541C205.191 215.541 205.191 215.541 205.191 215.541C205.191 215.541 205.191 215.541 205.191 215.541C205.43 215.54 205.622 215.602 205.736 215.674C205.801 215.714 205.823 215.744 205.83 215.757L205.816 216.28C205.81 216.292 205.788 216.324 205.716 216.368C205.601 216.438 205.414 216.497 205.182 216.497H200.119C199.873 216.497 199.68 216.431 199.568 216.357C199.514 216.322 199.493 216.296 199.486 216.283L199.536 215.779C199.54 215.77 199.562 215.733 199.645 215.685C199.76 215.617 199.942 215.562 200.165 215.561L200.165 215.561ZM205.832 215.763C205.832 215.763 205.832 215.762 205.831 215.759C205.832 215.762 205.832 215.763 205.832 215.763ZM205.817 216.278C205.817 216.276 205.818 216.276 205.818 216.276C205.818 216.276 205.818 216.276 205.817 216.278ZM199.482 216.274C199.482 216.274 199.483 216.276 199.484 216.28C199.482 216.276 199.482 216.274 199.482 216.274Z" fill="white" stroke="black"/>
<path opacity="0.2" d="M196.624 216.497H190.544C190.291 216.497 190.095 216.428 189.986 216.353C189.94 216.32 189.92 216.297 189.912 216.285L189.987 215.818C189.99 215.812 190.011 215.771 190.106 215.717C190.222 215.651 190.401 215.599 190.618 215.598C190.618 215.598 190.618 215.598 190.618 215.598L196.67 215.575L196.671 215.575C196.918 215.573 197.112 215.639 197.224 215.713C197.279 215.749 197.301 215.775 197.308 215.788L197.259 216.278C197.255 216.287 197.233 216.324 197.148 216.374C197.032 216.442 196.848 216.497 196.624 216.497ZM189.908 216.274C189.908 216.274 189.91 216.277 189.91 216.282C189.908 216.277 189.907 216.274 189.908 216.274ZM197.311 215.796C197.311 215.796 197.31 215.795 197.31 215.791C197.311 215.794 197.312 215.796 197.311 215.796Z" fill="white" stroke="black"/>
<path opacity="0.2" d="M187.04 216.497H181.423C181.163 216.497 180.965 216.424 180.858 216.348C180.818 216.319 180.8 216.298 180.792 216.286L180.889 215.854C180.89 215.853 180.909 215.807 181.017 215.748C181.134 215.684 181.31 215.635 181.519 215.634C181.519 215.634 181.519 215.634 181.519 215.634L187.112 215.612C187.112 215.612 187.112 215.612 187.112 215.612C187.112 215.612 187.112 215.612 187.112 215.612C187.366 215.611 187.563 215.68 187.673 215.756C187.721 215.788 187.741 215.812 187.749 215.824L187.675 216.277C187.673 216.283 187.652 216.325 187.555 216.379C187.438 216.445 187.257 216.497 187.04 216.497ZM180.79 216.283C180.786 216.277 180.786 216.274 180.787 216.274C180.787 216.274 180.789 216.277 180.79 216.283ZM187.753 215.835C187.753 215.835 187.751 215.833 187.751 215.827C187.753 215.832 187.754 215.835 187.753 215.835Z" fill="white" stroke="black"/>
<path opacity="0.2" d="M208.136 216.497H208.109C208.078 216.495 208.052 216.491 208.031 216.485L208.057 215.544C208.085 215.536 208.122 215.53 208.168 215.53C208.168 215.53 208.168 215.53 208.168 215.53L215.994 215.499L215.994 215.499C216.039 215.499 216.077 215.505 216.105 215.512V216.484C216.077 216.491 216.04 216.497 215.996 216.497H208.136Z" fill="white" stroke="black"/>
<path opacity="0.3" d="M154.211 258.304C149.95 258.296 146.962 254.959 147.772 251.574L147.772 251.573C147.865 251.185 147.961 250.783 148.061 250.372C149.776 251.259 152.074 252.1 154.681 252.365M154.211 258.304L154.21 258.804M154.211 258.304L154.21 258.804M154.211 258.304C180.454 258.357 258.041 258.492 272.164 258.286C278.414 258.194 287.29 257.901 296.666 257.591C312.816 257.057 330.448 256.474 338.688 256.79C348.33 257.16 380.548 257.803 396.563 258.112C400.7 258.192 403.687 255.127 403.271 251.879C399.329 253.054 392.23 253.632 383.979 253.435C381.864 253.384 378.894 253.276 375.223 253.143C360.51 252.609 334.549 251.666 307.342 252.367C288.571 252.851 251.717 252.983 218.91 252.928C202.505 252.901 187.11 252.826 175.49 252.726C163.892 252.626 156.013 252.5 154.681 252.365M154.21 258.804C149.725 258.795 146.379 255.246 147.286 251.457L403.756 251.726C404.294 255.382 400.945 258.697 396.553 258.612C380.541 258.303 348.317 257.66 338.669 257.29C330.444 256.975 312.858 257.556 296.724 258.09C287.339 258.4 278.445 258.694 272.171 258.786C258.043 258.992 180.449 258.857 154.21 258.804ZM154.681 252.365L154.731 251.867M154.681 252.365L154.731 251.867M154.731 251.867C159.939 252.396 269.802 252.834 307.33 251.867C334.555 251.166 360.541 252.109 375.249 252.644C378.916 252.777 381.882 252.884 383.991 252.935C392.278 253.133 399.336 252.545 403.182 251.384L154.731 251.867Z" fill="black" stroke="black"/>
<path d="M421.953 224.908V224.899L421.934 224.831L421.934 224.831L421.934 224.83L421.934 224.83L421.933 224.828L421.93 224.818L421.918 224.773C421.907 224.734 421.891 224.674 421.871 224.597C421.832 224.443 421.777 224.22 421.719 223.946C421.602 223.396 421.47 222.648 421.408 221.848C421.345 221.045 421.354 220.212 421.506 219.483C421.658 218.751 421.944 218.176 422.389 217.817C422.598 217.649 422.976 217.469 423.543 217.3C424.099 217.134 424.794 216.99 425.601 216.87C427.214 216.629 429.234 216.488 431.397 216.442C435.728 216.35 440.575 216.64 443.801 217.244C450.2 218.442 455.912 222.697 458.271 228.157L458.73 227.959L458.271 228.157C459.457 230.902 460.569 236.193 459.622 240.852C459.15 243.171 458.175 245.302 456.478 246.895C454.785 248.482 452.331 249.576 448.82 249.747C440.617 250.146 434.473 246.16 430.076 240.934C425.692 235.722 423.078 229.307 421.953 224.908Z" fill="#263238" stroke="black"/>
<path d="M433.425 216.182C433.621 216.333 433.84 216.503 434.068 216.687C434.891 217.35 435.892 218.226 436.467 218.997C436.974 219.677 437.801 220.546 438.733 221.171C439.681 221.805 440.633 222.119 441.442 221.892L433.425 216.182ZM433.425 216.182C434.385 216.048 435.371 216.094 436.203 216.198C436.766 216.269 437.247 216.364 437.587 216.442C437.757 216.48 437.891 216.515 437.981 216.539C438.002 216.545 438.021 216.55 438.037 216.554C440.015 217.98 441.257 219.33 441.772 220.345C442.034 220.862 442.071 221.219 442.013 221.433C441.966 221.606 441.831 221.783 441.442 221.892L433.425 216.182Z" fill="#3B7A57" stroke="black"/>
<path d="M40.2619 2.82532H125.865C128.904 2.82532 131.368 5.28945 131.368 8.32912V198.274C131.368 201.314 128.904 203.778 125.865 203.778H40.2619C37.2222 203.778 34.7581 201.314 34.7581 198.274V8.32912C34.7581 5.28945 37.2222 2.82532 40.2619 2.82532Z" fill="#263238" stroke="black"/>
<g opacity="0.3">
<mask id="path-142-inside-12_1_187" fill="white">
<path d="M121.325 184.988H44.2122C41.3799 184.988 39.0744 182.683 39.0744 179.85V13.3149C39.0744 10.4818 41.3791 8.17712 44.2122 8.17712H121.325C124.158 8.17712 126.463 10.4818 126.463 13.3149V179.85C126.463 182.683 124.159 184.988 121.325 184.988ZM44.2122 8.94077C41.8006 8.94077 39.8381 10.9033 39.8381 13.3149V179.85C39.8381 182.261 41.7999 184.224 44.2122 184.224H121.325C123.737 184.224 125.7 182.262 125.7 179.85V13.3149C125.7 10.9033 123.738 8.94077 121.325 8.94077H44.2122Z"/>
</mask>
<path d="M121.325 184.988H44.2122C41.3799 184.988 39.0744 182.683 39.0744 179.85V13.3149C39.0744 10.4818 41.3791 8.17712 44.2122 8.17712H121.325C124.158 8.17712 126.463 10.4818 126.463 13.3149V179.85C126.463 182.683 124.159 184.988 121.325 184.988ZM44.2122 8.94077C41.8006 8.94077 39.8381 10.9033 39.8381 13.3149V179.85C39.8381 182.261 41.7999 184.224 44.2122 184.224H121.325C123.737 184.224 125.7 182.262 125.7 179.85V13.3149C125.7 10.9033 123.738 8.94077 121.325 8.94077H44.2122Z" fill="black"/>
<path d="M121.325 183.988H44.2122V185.988H121.325V183.988ZM44.2122 183.988C41.932 183.988 40.0744 182.131 40.0744 179.85H38.0744C38.0744 183.235 40.8277 185.988 44.2122 185.988V183.988ZM40.0744 179.85V13.3149H38.0744V179.85H40.0744ZM40.0744 13.3149C40.0744 11.0341 41.9314 9.17712 44.2122 9.17712V7.17712C40.8268 7.17712 38.0744 9.92953 38.0744 13.3149H40.0744ZM44.2122 9.17712H121.325V7.17712H44.2122V9.17712ZM121.325 9.17712C123.606 9.17712 125.463 11.0342 125.463 13.3149H127.463C127.463 9.92943 124.71 7.17712 121.325 7.17712V9.17712ZM125.463 13.3149V179.85H127.463V13.3149H125.463ZM125.463 179.85C125.463 182.131 123.606 183.988 121.325 183.988V185.988C124.711 185.988 127.463 183.235 127.463 179.85H125.463ZM44.2122 7.94077C41.2483 7.94077 38.8381 10.3511 38.8381 13.3149H40.8381C40.8381 11.4556 42.3529 9.94077 44.2122 9.94077V7.94077ZM38.8381 13.3149V179.85H40.8381V13.3149H38.8381ZM38.8381 179.85C38.8381 182.814 41.2475 185.224 44.2122 185.224V183.224C42.3523 183.224 40.8381 181.709 40.8381 179.85H38.8381ZM44.2122 185.224H121.325V183.224H44.2122V185.224ZM121.325 185.224C124.289 185.224 126.7 182.815 126.7 179.85H124.7C124.7 181.71 123.185 183.224 121.325 183.224V185.224ZM126.7 179.85V13.3149H124.7V179.85H126.7ZM126.7 13.3149C126.7 10.3512 124.29 7.94077 121.325 7.94077V9.94077C123.185 9.94077 124.7 11.4555 124.7 13.3149H126.7ZM121.325 7.94077H44.2122V9.94077H121.325V7.94077Z" fill="black" mask="url(#path-142-inside-12_1_187)"/>
</g>
<path opacity="0.3" d="M125.854 41.5694H40.2684C40.2546 41.5694 40.2455 41.5681 40.2403 41.567C40.2359 41.5661 40.2335 41.5652 40.2326 41.5648C40.2326 41.5648 40.2326 41.5648 40.2326 41.5648C40.2291 41.5607 40.2151 41.5382 40.2151 41.497C40.2151 41.4558 40.2292 41.4331 40.2329 41.4287C40.233 41.4286 40.2331 41.4285 40.2331 41.4285C40.2339 41.4281 40.2363 41.4272 40.2407 41.4263C40.2458 41.4253 40.2548 41.424 40.2684 41.424H125.854C125.868 41.424 125.877 41.4253 125.882 41.4264C125.887 41.4273 125.889 41.4282 125.89 41.4285C125.89 41.4286 125.89 41.4286 125.89 41.4286C125.894 41.4327 125.908 41.4551 125.908 41.4964C125.907 41.5376 125.893 41.5603 125.89 41.5647C125.89 41.5648 125.89 41.5648 125.889 41.5649C125.889 41.5653 125.886 41.5661 125.882 41.567C125.877 41.5681 125.868 41.5694 125.854 41.5694Z" fill="black" stroke="black"/>
<path opacity="0.3" d="M125.854 72.9332H40.2684C40.2546 72.9332 40.2455 72.9319 40.2403 72.9308C40.2359 72.9299 40.2335 72.929 40.2326 72.9286C40.2326 72.9286 40.2326 72.9286 40.2326 72.9285C40.2291 72.9244 40.2151 72.902 40.2151 72.8608C40.2151 72.8196 40.2292 72.7969 40.2329 72.7925C40.233 72.7924 40.2331 72.7923 40.2331 72.7922C40.2339 72.7919 40.2363 72.791 40.2407 72.7901C40.2458 72.789 40.2548 72.7877 40.2684 72.7877H125.854C125.868 72.7877 125.877 72.789 125.882 72.7901C125.887 72.791 125.889 72.7919 125.89 72.7923C125.89 72.7923 125.89 72.7923 125.89 72.7924C125.894 72.7965 125.908 72.8189 125.908 72.8601C125.907 72.9013 125.893 72.924 125.89 72.9284C125.89 72.9285 125.89 72.9286 125.889 72.9287C125.889 72.929 125.886 72.9299 125.882 72.9308C125.877 72.9319 125.868 72.9332 125.854 72.9332Z" fill="black" stroke="black"/>
<path d="M87.764 148.247C89.6766 150.36 89.5138 153.624 87.4005 155.537C85.2871 157.449 82.0235 157.287 80.1109 155.173C78.1983 153.06 78.3611 149.796 80.4744 147.884C82.5878 145.971 85.8515 146.134 87.764 148.247Z" fill="#3B7A57" stroke="black"/>
<path opacity="0.3" d="M48.301 84.3307V82.0852H56.393V84.3307H48.301Z" fill="black" stroke="black"/>
<path opacity="0.3" d="M63.3597 84.3307V82.0852H118.052V84.3307H63.3597Z" fill="black" stroke="black"/>
<path opacity="0.3" d="M48.301 89.9191V87.6736H56.393V89.9191H48.301Z" fill="black" stroke="black"/>
<path d="M99.6688 90.419C99.6688 91.2776 98.9724 91.974 98.1138 91.974C97.2552 91.974 96.5588 91.2776 96.5588 90.419C96.5588 89.5603 97.2552 88.864 98.1138 88.864C98.9725 88.864 99.6688 89.5603 99.6688 90.419Z" fill="#3B7A57" stroke="black"/>
<path opacity="0.1" d="M108.609 90.419C108.609 91.2776 107.913 91.974 107.054 91.974C106.196 91.974 105.5 91.2779 105.5 90.419C105.5 89.5602 106.197 88.864 107.054 88.864C107.912 88.864 108.609 89.5605 108.609 90.419Z" fill="white" stroke="black"/>
<path opacity="0.3" d="M117.641 90.419C117.641 91.2776 116.945 91.974 116.086 91.974C115.228 91.974 114.531 91.2776 114.531 90.419C114.531 89.5604 115.228 88.864 116.086 88.864C116.945 88.864 117.641 89.5603 117.641 90.419Z" fill="black" stroke="black"/>
<path d="M154.69 0.5H405.718C407.132 0.5 408.279 1.6468 408.279 3.06146V171.805C408.279 173.22 407.132 174.366 405.718 174.366H154.69C153.276 174.366 152.129 173.22 152.129 171.805V3.06146C152.129 1.6468 153.276 0.5 154.69 0.5Z" fill="#263238" stroke="black"/>
<path d="M239.395 200.512L248.938 170.939H310.467L320.884 200.452C321.415 201.956 320.299 203.532 318.705 203.532H241.594C240.026 203.532 238.913 202.004 239.395 200.512Z" fill="#263238" stroke="black"/>
<path opacity="0.3" d="M158.289 147.737V5.83643H402.12V147.737H158.289Z" fill="black" stroke="black"/>
<path d="M162.816 147.737V9.50037H397.59V147.737H162.816Z" fill="#3B7A57" stroke="black"/>
<path opacity="0.3" d="M245.523 182.507L247.827 175.366H312.348L314.868 182.507H245.523Z" fill="black" stroke="black"/>
<path opacity="0.1" d="M402.12 13.6772V51.6846C401.921 51.6778 401.665 51.6693 401.356 51.6592C400.521 51.6318 399.296 51.5932 397.739 51.5479C394.623 51.4573 390.175 51.34 384.842 51.2335C374.178 51.0203 359.976 50.8497 345.83 51.0203C331.687 51.1908 317.584 51.7024 307.125 52.856C301.901 53.4322 297.556 54.1715 294.563 55.1192C293.072 55.5916 291.874 56.1284 291.069 56.7516C290.259 57.3787 289.766 58.1663 289.922 59.1038C290.055 59.905 290.498 60.7051 291.136 61.4957C291.777 62.2905 292.642 63.109 293.673 63.9482C295.733 65.626 298.509 67.4308 301.611 69.3353C303.113 70.2573 304.692 71.2035 306.309 72.1721C311.395 75.2197 316.852 78.4888 321.426 81.9243C324.436 84.1855 327.036 86.4995 328.881 88.8446C330.727 91.1916 331.785 93.5284 331.788 95.8454C331.792 98.1467 330.755 100.524 328.212 102.964C325.662 105.411 321.619 107.897 315.679 110.385C303.813 115.358 288.023 118.421 270.982 120.209C253.949 121.996 235.701 122.507 218.934 122.394C202.169 122.28 186.894 121.542 175.809 120.832C170.267 120.477 165.773 120.129 162.665 119.87C161.112 119.741 159.904 119.633 159.086 119.558C158.756 119.528 158.49 119.503 158.289 119.484V70.6333C158.477 70.6977 158.703 70.7753 158.966 70.8652C159.84 71.1642 161.124 71.6002 162.76 72.1488C166.032 73.246 170.716 74.7936 176.364 76.5951C187.658 80.1979 202.81 84.8177 218.235 88.8837C233.654 92.9484 249.366 96.4649 261.773 97.8542C267.973 98.5485 273.377 98.7152 277.519 98.1412C281.622 97.5724 284.665 96.2506 285.863 93.7903C287.013 91.4301 286.939 89.0865 286.023 86.7982C285.115 84.53 283.382 82.3157 281.214 80.1544C278.078 77.0296 273.94 73.9312 269.871 70.8841C268.324 69.7264 266.788 68.5761 265.32 67.4346C262.641 65.3504 260.183 63.2919 258.267 61.2513C256.345 59.2052 255.007 57.2175 254.509 55.2812C254.019 53.3784 254.329 51.4839 255.798 49.5527C257.286 47.5966 259.974 45.5931 264.262 43.5621C281.465 35.4129 316.039 27.9212 346.379 22.4633C361.534 19.7368 375.612 17.5214 385.9 15.9876C391.045 15.2208 395.241 14.6243 398.152 14.2197C399.607 14.0173 400.741 13.8629 401.51 13.7591C401.749 13.7269 401.953 13.6996 402.12 13.6772Z" fill="white" stroke="black"/>
<path d="M252.079 89.4673H308.332C309.739 89.4673 310.879 90.6079 310.879 92.015V92.5824C310.879 93.9895 309.739 95.1301 308.332 95.1301H252.079C250.672 95.1301 249.531 93.9895 249.531 92.5824V92.015C249.531 90.6079 250.672 89.4673 252.079 89.4673Z" fill="white" stroke="black"/>
<path d="M296.091 65.2217C296.091 73.9972 288.977 81.1111 280.202 81.1111C271.426 81.1111 264.312 73.9972 264.312 65.2217C264.312 56.4462 271.426 49.3323 280.202 49.3323C288.977 49.3323 296.091 56.4462 296.091 65.2217Z" fill="white" stroke="black"/>
<path d="M286.33 60.8429C286.33 64.2272 283.586 66.9706 280.202 66.9706C276.818 66.9706 274.074 64.2272 274.074 60.8429C274.074 57.4587 276.818 54.7152 280.202 54.7152C283.586 54.7152 286.33 57.4587 286.33 60.8429Z" fill="#3B7A57" stroke="black"/>
<path d="M280.204 79.2479C276.872 79.2377 274.047 77.5965 272.044 75.9357C270.343 74.5256 270.662 71.8164 272.647 70.8017L272.647 70.8017C274.536 69.8358 277.062 68.9741 280.067 68.9741C284.434 68.9741 287.367 70.0008 289.216 71.0378L289.217 71.0379C290.715 71.8771 290.961 73.9279 289.702 75.0904L289.702 75.0904C287.636 76.9994 284.313 79.2603 280.204 79.2479ZM280.204 79.2479L280.202 79.7479M280.204 79.2479L280.202 79.7479M280.202 79.7479C284.496 79.7608 287.937 77.4019 290.041 75.4577L272.419 70.3565C270.124 71.5303 269.74 74.675 271.724 76.3206C273.772 78.0174 276.706 79.7372 280.202 79.7479Z" fill="#3B7A57" stroke="black"/>
</svg>
