<svg xmlns="http://www.w3.org/2000/svg" version="1.1" xmlns:xlink="http://www.w3.org/1999/xlink" xmlns:svgjs="http://svgjs.dev/svgjs" width="1500" height="900" preserveAspectRatio="none" viewBox="0 0 1500 900"><g mask="url(&quot;#SvgjsMask3112&quot;)" fill="none"><rect width="1500" height="900" x="0" y="0" fill="rgba(20, 20, 22, 1)"></rect><use xlink:href="#SvgjsSymbol3119" x="0" y="0"></use><use xlink:href="#SvgjsSymbol3119" x="0" y="720"></use><use xlink:href="#SvgjsSymbol3119" x="720" y="0"></use><use xlink:href="#SvgjsSymbol3119" x="720" y="720"></use><use xlink:href="#SvgjsSymbol3119" x="1440" y="0"></use><use xlink:href="#SvgjsSymbol3119" x="1440" y="720"></use></g><defs><mask id="SvgjsMask3112"><rect width="1500" height="900" fill="#ffffff"></rect></mask><path d="M-1 0 a1 1 0 1 0 2 0 a1 1 0 1 0 -2 0z" id="SvgjsPath3118"></path><path d="M-3 0 a3 3 0 1 0 6 0 a3 3 0 1 0 -6 0z" id="SvgjsPath3114"></path><path d="M-5 0 a5 5 0 1 0 10 0 a5 5 0 1 0 -10 0z" id="SvgjsPath3116"></path><path d="M2 -2 L-2 2z" id="SvgjsPath3113"></path><path d="M6 -6 L-6 6z" id="SvgjsPath3117"></path><path d="M30 -30 L-30 30z" id="SvgjsPath3115"></path></defs><symbol id="SvgjsSymbol3119"><use xlink:href="#SvgjsPath3113" x="30" y="30" stroke="rgba(46, 51, 47, 1)"></use><use xlink:href="#SvgjsPath3114" x="30" y="90" stroke="rgba(46, 51, 47, 1)"></use><use xlink:href="#SvgjsPath3113" x="30" y="150" stroke="rgba(46, 51, 47, 1)"></use><use xlink:href="#SvgjsPath3115" x="30" y="210" stroke="rgba(46, 51, 47, 1)" stroke-width="3"></use><use xlink:href="#SvgjsPath3116" x="30" y="270" stroke="rgba(46, 51, 47, 1)"></use><use xlink:href="#SvgjsPath3117" x="30" y="330" stroke="rgba(46, 51, 47, 1)"></use><use xlink:href="#SvgjsPath3117" x="30" y="390" stroke="rgba(46, 51, 47, 1)"></use><use xlink:href="#SvgjsPath3117" x="30" y="450" stroke="rgba(46, 51, 47, 1)"></use><use xlink:href="#SvgjsPath3114" x="30" y="510" stroke="rgba(46, 51, 47, 1)"></use><use xlink:href="#SvgjsPath3115" x="30" y="570" stroke="rgba(46, 51, 47, 1)" stroke-width="3"></use><use xlink:href="#SvgjsPath3117" x="30" y="630" stroke="rgba(46, 51, 47, 1)"></use><use xlink:href="#SvgjsPath3116" x="30" y="690" stroke="rgba(46, 51, 47, 1)"></use><use xlink:href="#SvgjsPath3116" x="90" y="30" stroke="rgba(46, 51, 47, 1)"></use><use xlink:href="#SvgjsPath3113" x="90" y="90" stroke="rgba(46, 51, 47, 1)"></use><use xlink:href="#SvgjsPath3118" x="90" y="150" stroke="rgba(46, 51, 47, 1)"></use><use xlink:href="#SvgjsPath3116" x="90" y="210" stroke="rgba(46, 51, 47, 1)"></use><use xlink:href="#SvgjsPath3117" x="90" y="270" stroke="rgba(46, 51, 47, 1)"></use><use xlink:href="#SvgjsPath3115" x="90" y="330" stroke="rgba(46, 51, 47, 1)" stroke-width="3"></use><use xlink:href="#SvgjsPath3117" x="90" y="390" stroke="rgba(46, 51, 47, 1)"></use><use xlink:href="#SvgjsPath3117" x="90" y="450" stroke="rgba(46, 51, 47, 1)"></use><use xlink:href="#SvgjsPath3116" x="90" y="510" stroke="rgba(46, 51, 47, 1)"></use><use xlink:href="#SvgjsPath3117" x="90" y="570" stroke="rgba(46, 51, 47, 1)"></use><use xlink:href="#SvgjsPath3115" x="90" y="630" stroke="rgba(46, 51, 47, 1)" stroke-width="3"></use><use xlink:href="#SvgjsPath3116" x="90" y="690" stroke="rgba(46, 51, 47, 1)"></use><use xlink:href="#SvgjsPath3117" x="150" y="30" stroke="rgba(46, 51, 47, 1)"></use><use xlink:href="#SvgjsPath3113" x="150" y="90" stroke="rgba(46, 51, 47, 1)"></use><use xlink:href="#SvgjsPath3117" x="150" y="150" stroke="rgba(46, 51, 47, 1)"></use><use xlink:href="#SvgjsPath3117" x="150" y="210" stroke="rgba(46, 51, 47, 1)"></use><use xlink:href="#SvgjsPath3118" x="150" y="270" stroke="rgba(46, 51, 47, 1)"></use><use xlink:href="#SvgjsPath3113" x="150" y="330" stroke="rgba(46, 51, 47, 1)"></use><use xlink:href="#SvgjsPath3117" x="150" y="390" stroke="rgba(46, 51, 47, 1)"></use><use xlink:href="#SvgjsPath3117" x="150" y="450" stroke="rgba(46, 51, 47, 1)"></use><use xlink:href="#SvgjsPath3117" x="150" y="510" stroke="rgba(46, 51, 47, 1)"></use><use xlink:href="#SvgjsPath3114" x="150" y="570" stroke="rgba(46, 51, 47, 1)"></use><use xlink:href="#SvgjsPath3116" x="150" y="630" stroke="rgba(46, 51, 47, 1)"></use><use xlink:href="#SvgjsPath3113" x="150" y="690" stroke="rgba(46, 51, 47, 1)"></use><use xlink:href="#SvgjsPath3114" x="210" y="30" stroke="rgba(46, 51, 47, 1)"></use><use xlink:href="#SvgjsPath3118" x="210" y="90" stroke="rgba(46, 51, 47, 1)"></use><use xlink:href="#SvgjsPath3117" x="210" y="150" stroke="rgba(46, 51, 47, 1)"></use><use xlink:href="#SvgjsPath3117" x="210" y="210" stroke="rgba(46, 51, 47, 1)"></use><use xlink:href="#SvgjsPath3114" x="210" y="270" stroke="rgba(46, 51, 47, 1)"></use><use xlink:href="#SvgjsPath3113" x="210" y="330" stroke="rgba(46, 51, 47, 1)"></use><use xlink:href="#SvgjsPath3118" x="210" y="390" stroke="rgba(46, 51, 47, 1)"></use><use xlink:href="#SvgjsPath3116" x="210" y="450" stroke="rgba(46, 51, 47, 1)"></use><use xlink:href="#SvgjsPath3117" x="210" y="510" stroke="rgba(46, 51, 47, 1)"></use><use xlink:href="#SvgjsPath3116" x="210" y="570" stroke="rgba(46, 51, 47, 1)"></use><use xlink:href="#SvgjsPath3118" x="210" y="630" stroke="rgba(46, 51, 47, 1)"></use><use xlink:href="#SvgjsPath3114" x="210" y="690" stroke="rgba(46, 51, 47, 1)"></use><use xlink:href="#SvgjsPath3117" x="270" y="30" stroke="rgba(46, 51, 47, 1)"></use><use xlink:href="#SvgjsPath3113" x="270" y="90" stroke="rgba(46, 51, 47, 1)"></use><use xlink:href="#SvgjsPath3113" x="270" y="150" stroke="rgba(46, 51, 47, 1)"></use><use xlink:href="#SvgjsPath3116" x="270" y="210" stroke="rgba(46, 51, 47, 1)"></use><use xlink:href="#SvgjsPath3116" x="270" y="270" stroke="rgba(46, 51, 47, 1)"></use><use xlink:href="#SvgjsPath3114" x="270" y="330" stroke="rgba(46, 51, 47, 1)"></use><use xlink:href="#SvgjsPath3116" x="270" y="390" stroke="rgba(46, 51, 47, 1)"></use><use xlink:href="#SvgjsPath3117" x="270" y="450" stroke="rgba(46, 51, 47, 1)"></use><use xlink:href="#SvgjsPath3116" x="270" y="510" stroke="rgba(46, 51, 47, 1)"></use><use xlink:href="#SvgjsPath3117" x="270" y="570" stroke="rgba(46, 51, 47, 1)"></use><use xlink:href="#SvgjsPath3115" x="270" y="630" stroke="rgba(46, 51, 47, 1)" stroke-width="3"></use><use xlink:href="#SvgjsPath3114" x="270" y="690" stroke="rgba(46, 51, 47, 1)"></use><use xlink:href="#SvgjsPath3117" x="330" y="30" stroke="rgba(46, 51, 47, 1)"></use><use xlink:href="#SvgjsPath3117" x="330" y="90" stroke="rgba(46, 51, 47, 1)"></use><use xlink:href="#SvgjsPath3118" x="330" y="150" stroke="rgba(46, 51, 47, 1)"></use><use xlink:href="#SvgjsPath3118" x="330" y="210" stroke="rgba(46, 51, 47, 1)"></use><use xlink:href="#SvgjsPath3114" x="330" y="270" stroke="rgba(46, 51, 47, 1)"></use><use xlink:href="#SvgjsPath3116" x="330" y="330" stroke="rgba(46, 51, 47, 1)"></use><use xlink:href="#SvgjsPath3115" x="330" y="390" stroke="rgba(46, 51, 47, 1)" stroke-width="3"></use><use xlink:href="#SvgjsPath3118" x="330" y="450" stroke="rgba(46, 51, 47, 1)"></use><use xlink:href="#SvgjsPath3117" x="330" y="510" stroke="rgba(46, 51, 47, 1)"></use><use xlink:href="#SvgjsPath3117" x="330" y="570" stroke="rgba(46, 51, 47, 1)"></use><use xlink:href="#SvgjsPath3113" x="330" y="630" stroke="rgba(46, 51, 47, 1)"></use><use xlink:href="#SvgjsPath3116" x="330" y="690" stroke="rgba(46, 51, 47, 1)"></use><use xlink:href="#SvgjsPath3115" x="390" y="30" stroke="rgba(46, 51, 47, 1)" stroke-width="3"></use><use xlink:href="#SvgjsPath3113" x="390" y="90" stroke="rgba(46, 51, 47, 1)"></use><use xlink:href="#SvgjsPath3117" x="390" y="150" stroke="rgba(46, 51, 47, 1)"></use><use xlink:href="#SvgjsPath3116" x="390" y="210" stroke="rgba(46, 51, 47, 1)"></use><use xlink:href="#SvgjsPath3117" x="390" y="270" stroke="rgba(46, 51, 47, 1)"></use><use xlink:href="#SvgjsPath3113" x="390" y="330" stroke="rgba(46, 51, 47, 1)"></use><use xlink:href="#SvgjsPath3117" x="390" y="390" stroke="rgba(46, 51, 47, 1)"></use><use xlink:href="#SvgjsPath3118" x="390" y="450" stroke="rgba(46, 51, 47, 1)"></use><use xlink:href="#SvgjsPath3114" x="390" y="510" stroke="rgba(46, 51, 47, 1)"></use><use xlink:href="#SvgjsPath3116" x="390" y="570" stroke="rgba(46, 51, 47, 1)"></use><use xlink:href="#SvgjsPath3117" x="390" y="630" stroke="rgba(46, 51, 47, 1)"></use><use xlink:href="#SvgjsPath3113" x="390" y="690" stroke="rgba(46, 51, 47, 1)"></use><use xlink:href="#SvgjsPath3115" x="450" y="30" stroke="rgba(46, 51, 47, 1)" stroke-width="3"></use><use xlink:href="#SvgjsPath3116" x="450" y="90" stroke="rgba(46, 51, 47, 1)"></use><use xlink:href="#SvgjsPath3116" x="450" y="150" stroke="rgba(46, 51, 47, 1)"></use><use xlink:href="#SvgjsPath3116" x="450" y="210" stroke="rgba(46, 51, 47, 1)"></use><use xlink:href="#SvgjsPath3116" x="450" y="270" stroke="rgba(46, 51, 47, 1)"></use><use xlink:href="#SvgjsPath3117" x="450" y="330" stroke="rgba(46, 51, 47, 1)"></use><use xlink:href="#SvgjsPath3118" x="450" y="390" stroke="rgba(46, 51, 47, 1)"></use><use xlink:href="#SvgjsPath3116" x="450" y="450" stroke="rgba(46, 51, 47, 1)"></use><use xlink:href="#SvgjsPath3113" x="450" y="510" stroke="rgba(46, 51, 47, 1)"></use><use xlink:href="#SvgjsPath3115" x="450" y="570" stroke="rgba(46, 51, 47, 1)" stroke-width="3"></use><use xlink:href="#SvgjsPath3115" x="450" y="630" stroke="rgba(46, 51, 47, 1)" stroke-width="3"></use><use xlink:href="#SvgjsPath3117" x="450" y="690" stroke="rgba(46, 51, 47, 1)"></use><use xlink:href="#SvgjsPath3116" x="510" y="30" stroke="rgba(46, 51, 47, 1)"></use><use xlink:href="#SvgjsPath3117" x="510" y="90" stroke="rgba(46, 51, 47, 1)"></use><use xlink:href="#SvgjsPath3115" x="510" y="150" stroke="rgba(46, 51, 47, 1)" stroke-width="3"></use><use xlink:href="#SvgjsPath3117" x="510" y="210" stroke="rgba(46, 51, 47, 1)"></use><use xlink:href="#SvgjsPath3114" x="510" y="270" stroke="rgba(46, 51, 47, 1)"></use><use xlink:href="#SvgjsPath3114" x="510" y="330" stroke="rgba(46, 51, 47, 1)"></use><use xlink:href="#SvgjsPath3116" x="510" y="390" stroke="rgba(46, 51, 47, 1)"></use><use xlink:href="#SvgjsPath3116" x="510" y="450" stroke="rgba(46, 51, 47, 1)"></use><use xlink:href="#SvgjsPath3116" x="510" y="510" stroke="rgba(46, 51, 47, 1)"></use><use xlink:href="#SvgjsPath3116" x="510" y="570" stroke="rgba(46, 51, 47, 1)"></use><use xlink:href="#SvgjsPath3116" x="510" y="630" stroke="rgba(46, 51, 47, 1)"></use><use xlink:href="#SvgjsPath3114" x="510" y="690" stroke="rgba(46, 51, 47, 1)"></use><use xlink:href="#SvgjsPath3116" x="570" y="30" stroke="rgba(46, 51, 47, 1)"></use><use xlink:href="#SvgjsPath3118" x="570" y="90" stroke="rgba(46, 51, 47, 1)"></use><use xlink:href="#SvgjsPath3113" x="570" y="150" stroke="rgba(46, 51, 47, 1)"></use><use xlink:href="#SvgjsPath3116" x="570" y="210" stroke="rgba(46, 51, 47, 1)"></use><use xlink:href="#SvgjsPath3113" x="570" y="270" stroke="rgba(46, 51, 47, 1)"></use><use xlink:href="#SvgjsPath3116" x="570" y="330" stroke="rgba(46, 51, 47, 1)"></use><use xlink:href="#SvgjsPath3115" x="570" y="390" stroke="rgba(46, 51, 47, 1)" stroke-width="3"></use><use xlink:href="#SvgjsPath3117" x="570" y="450" stroke="rgba(46, 51, 47, 1)"></use><use xlink:href="#SvgjsPath3117" x="570" y="510" stroke="rgba(46, 51, 47, 1)"></use><use xlink:href="#SvgjsPath3116" x="570" y="570" stroke="rgba(46, 51, 47, 1)"></use><use xlink:href="#SvgjsPath3117" x="570" y="630" stroke="rgba(46, 51, 47, 1)"></use><use xlink:href="#SvgjsPath3113" x="570" y="690" stroke="rgba(46, 51, 47, 1)"></use><use xlink:href="#SvgjsPath3117" x="630" y="30" stroke="rgba(46, 51, 47, 1)"></use><use xlink:href="#SvgjsPath3118" x="630" y="90" stroke="rgba(46, 51, 47, 1)"></use><use xlink:href="#SvgjsPath3116" x="630" y="150" stroke="rgba(46, 51, 47, 1)"></use><use xlink:href="#SvgjsPath3117" x="630" y="210" stroke="rgba(46, 51, 47, 1)"></use><use xlink:href="#SvgjsPath3113" x="630" y="270" stroke="rgba(46, 51, 47, 1)"></use><use xlink:href="#SvgjsPath3114" x="630" y="330" stroke="rgba(46, 51, 47, 1)"></use><use xlink:href="#SvgjsPath3114" x="630" y="390" stroke="rgba(46, 51, 47, 1)"></use><use xlink:href="#SvgjsPath3116" x="630" y="450" stroke="rgba(46, 51, 47, 1)"></use><use xlink:href="#SvgjsPath3117" x="630" y="510" stroke="rgba(46, 51, 47, 1)"></use><use xlink:href="#SvgjsPath3118" x="630" y="570" stroke="rgba(46, 51, 47, 1)"></use><use xlink:href="#SvgjsPath3116" x="630" y="630" stroke="rgba(46, 51, 47, 1)"></use><use xlink:href="#SvgjsPath3114" x="630" y="690" stroke="rgba(46, 51, 47, 1)"></use><use xlink:href="#SvgjsPath3116" x="690" y="30" stroke="rgba(46, 51, 47, 1)"></use><use xlink:href="#SvgjsPath3117" x="690" y="90" stroke="rgba(46, 51, 47, 1)"></use><use xlink:href="#SvgjsPath3116" x="690" y="150" stroke="rgba(46, 51, 47, 1)"></use><use xlink:href="#SvgjsPath3114" x="690" y="210" stroke="rgba(46, 51, 47, 1)"></use><use xlink:href="#SvgjsPath3118" x="690" y="270" stroke="rgba(46, 51, 47, 1)"></use><use xlink:href="#SvgjsPath3114" x="690" y="330" stroke="rgba(46, 51, 47, 1)"></use><use xlink:href="#SvgjsPath3117" x="690" y="390" stroke="rgba(46, 51, 47, 1)"></use><use xlink:href="#SvgjsPath3116" x="690" y="450" stroke="rgba(46, 51, 47, 1)"></use><use xlink:href="#SvgjsPath3116" x="690" y="510" stroke="rgba(46, 51, 47, 1)"></use><use xlink:href="#SvgjsPath3113" x="690" y="570" stroke="rgba(46, 51, 47, 1)"></use><use xlink:href="#SvgjsPath3117" x="690" y="630" stroke="rgba(46, 51, 47, 1)"></use><use xlink:href="#SvgjsPath3118" x="690" y="690" stroke="rgba(46, 51, 47, 1)"></use></symbol></svg>